<svg width="230" height="129" viewBox="0 0 230 129" fill="none" xmlns="http://www.w3.org/2000/svg">
<path opacity="0.15" d="M334.425 112.254C334.229 111.764 333.661 111.548 333.171 111.744C332.838 111.881 332.623 112.195 332.603 112.548L269.439 111.137L266.422 101.204C266.442 101.204 266.442 101.204 266.461 101.184C266.951 100.988 267.167 100.42 266.971 99.9304C266.951 99.8716 266.912 99.8129 266.873 99.7541L306.056 68.7403C306.174 68.8775 306.331 68.9754 306.507 69.0146L306.605 69.0342C306.781 69.0538 306.957 69.0538 307.134 68.9754C307.624 68.7795 307.839 68.2113 307.643 67.7215C307.447 67.2318 306.879 67.0162 306.389 67.2122C306.095 67.3297 305.899 67.5844 305.841 67.8783L278.745 63.235L298.592 4.85156C299.042 4.98871 299.552 4.96912 300.022 4.7732C301.119 4.32259 301.628 3.04912 301.158 1.97157C300.708 0.874435 299.434 0.365051 298.357 0.835251C297.514 1.1879 297.005 2.03035 297.044 2.91198L251.18 6.71278L282.409 -74.8086C282.86 -74.6714 283.369 -74.691 283.839 -74.8869C284.936 -75.3375 285.446 -76.611 284.975 -77.6886C284.525 -78.7857 283.251 -79.2951 282.174 -78.8249C281.077 -78.3743 280.567 -77.1008 281.038 -76.0233C281.155 -75.749 281.312 -75.5335 281.508 -75.3375L219.656 -10.2733L220.734 -40.5817C221.008 -40.5817 221.283 -40.6405 221.557 -40.7581C222.654 -41.2087 223.163 -42.4822 222.713 -43.5597C222.262 -44.6568 220.989 -45.1662 219.911 -44.696C218.814 -44.2454 218.305 -42.9719 218.775 -41.8944C218.951 -41.4634 219.265 -41.1107 219.637 -40.8952L193.58 0.110352C193.188 -0.124748 192.718 -0.163933 192.267 0.0123978C191.934 0.149536 191.679 0.404228 191.523 0.698105L170.148 -9.29369C170.305 -9.64635 170.305 -10.0578 170.148 -10.4496C169.835 -11.1941 168.973 -11.5467 168.228 -11.2333C167.484 -10.9198 167.131 -10.0578 167.444 -9.31328C167.484 -9.19573 167.562 -9.09778 167.621 -8.99982L143.484 12.414L128.32 -2.08392C128.692 -2.49535 128.829 -3.10269 128.594 -3.65126C128.28 -4.39574 127.418 -4.7484 126.674 -4.43493C125.929 -4.12146 125.577 -3.25943 125.89 -2.51494C125.988 -2.29943 126.125 -2.10351 126.282 -1.96637L102.772 26.7943L91.5067 9.7691C91.8594 9.5144 91.9965 9.0442 91.8202 8.63277C91.6243 8.14298 91.0561 7.92747 90.5663 8.12339C90.0765 8.31931 89.861 8.88747 90.0569 9.37727C90.1549 9.59277 90.3116 9.7691 90.5271 9.86706L77.1264 41.8604L47.3469 25.7952C47.4644 25.5601 47.484 25.2858 47.3665 25.0311C47.1706 24.5413 46.6024 24.3258 46.1126 24.5217C45.6228 24.7176 45.4073 25.2858 45.6032 25.7756C45.7991 26.2458 46.3085 26.4613 46.7787 26.3045L55.1052 47.5616L1.89398 48.7371C1.89398 48.6392 1.87438 48.5412 1.8352 48.4432C1.63928 47.9535 1.07112 47.7379 0.581328 47.9339C0.0915333 48.1298 -0.123976 48.6979 0.0719415 49.1877C0.267859 49.6775 0.83602 49.893 1.32581 49.6971C1.56092 49.5992 1.73724 49.4032 1.8352 49.1877L63.2358 71.2872C63.1378 71.6007 63.1378 71.9534 63.275 72.2864C63.5885 73.0309 64.4505 73.3836 65.195 73.0701C65.7631 72.835 66.0962 72.2864 66.0962 71.7183L100.734 71.1305L120.013 95.581C119.719 95.8357 119.601 96.2863 119.758 96.6586C119.954 97.1484 120.522 97.3639 121.012 97.168C121.443 96.9917 121.658 96.541 121.58 96.11L127.556 94.7386L135.471 116.916C135 117.132 134.765 117.681 134.961 118.151C135.157 118.641 135.725 118.856 136.215 118.66C136.685 118.464 136.901 117.935 136.744 117.465L159 106.239C159.235 106.631 159.745 106.807 160.176 106.611C160.489 106.474 160.685 106.2 160.744 105.906L172.401 106.827L179.552 122.951C179.121 123.166 178.906 123.695 179.102 124.165C179.297 124.655 179.866 124.871 180.355 124.675C180.688 124.538 180.904 124.224 180.924 123.891V123.793C180.924 123.754 180.924 123.734 180.904 123.695L203.395 119.522C203.415 119.581 203.435 119.64 203.454 119.699C203.768 120.443 204.63 120.796 205.374 120.482C205.472 120.443 205.57 120.384 205.668 120.325L205.746 120.267C205.864 120.169 205.981 120.032 206.06 119.914L206.119 119.816C206.217 119.62 206.275 119.385 206.275 119.17V119.072C206.275 118.974 206.256 118.876 206.217 118.758L228.59 110.667C228.747 111.059 229.139 111.274 229.531 111.235L229.629 111.215C229.687 111.215 229.727 111.196 229.785 111.176L229.883 111.137L229.903 111.117L230.001 111.059C230.021 111.039 230.04 111.019 230.06 111L230.138 110.921C230.216 110.843 230.275 110.745 230.314 110.647L273.338 127.163C273.318 127.222 273.318 127.3 273.318 127.359V127.457C273.318 127.555 273.338 127.653 273.377 127.731C273.495 127.986 273.691 128.162 273.945 128.26L274.122 128.299C274.298 128.319 274.455 128.299 274.631 128.241C275.023 128.064 275.258 127.672 275.199 127.261L294.615 122.383L294.732 122.363L332.583 112.861C332.583 112.881 332.603 112.92 332.603 112.939C332.623 112.959 332.623 112.998 332.642 113.018L332.348 113.312L332.74 113.155C332.74 113.155 332.74 113.155 332.74 113.174L332.819 113.253C332.858 113.292 332.877 113.312 332.917 113.331L333.014 113.39C333.269 113.527 333.563 113.566 333.857 113.449C334.386 113.292 334.621 112.743 334.425 112.254ZM305.978 68.662L266.794 99.6757C266.696 99.5582 266.579 99.4798 266.442 99.421L270.948 86.1574L305.919 68.5836C305.958 68.6032 305.978 68.6424 305.978 68.662ZM203.513 118.445L195.402 113.899L198.184 112.097L203.748 118.131C203.65 118.21 203.572 118.327 203.513 118.445ZM183.451 107.297L176.359 104.241L173.694 89.9974L174.772 88.7827L183.843 106.925C183.666 107.003 183.529 107.14 183.451 107.297ZM183.353 107.591L176.888 107.081L176.378 104.358L183.412 107.395C183.392 107.454 183.373 107.532 183.353 107.591ZM75.0105 47.1306L77.146 42.0171L85.0023 46.249C84.9043 46.4449 84.8651 46.68 84.8651 46.9151L75.0105 47.1306ZM74.6578 47.7183L74.0701 47.2482L74.8537 47.2286L74.6578 47.7183ZM84.8847 47.013C84.9043 47.1502 84.9435 47.2873 84.9827 47.4245C85.061 47.64 85.1982 47.8163 85.3549 47.9535L81.0839 52.8318L74.7166 47.7771L74.9517 47.2286L84.8847 47.013ZM85.4333 48.0318C85.8447 48.3453 86.3933 48.4432 86.9027 48.2277C86.9223 48.2277 86.9418 48.2081 86.9614 48.2081L90.3508 54.7126L86.5696 57.2204L81.1819 52.9298L85.4333 48.0318ZM155.513 33.769L148.93 37.1192L138.233 17.2336L141.25 14.5495L155.748 32.6915C155.454 32.9462 155.356 33.3772 155.513 33.769ZM170.697 39.1763L157.276 33.6906C157.355 33.4751 157.355 33.24 157.257 33.0049C157.139 32.7502 156.943 32.5543 156.689 32.476L158.315 26.7552L170.912 38.8041C170.834 38.9412 170.755 39.0588 170.697 39.1763ZM207.941 18.4287L207.372 21.1715L198.713 14.1968L198.008 12.6295L200.476 10.0434L207.941 18.4287ZM200.555 9.96502L212.31 -2.39739L207.98 18.3111L200.555 9.96502ZM221.028 9.31849L231.431 8.45645L218.873 29.2629C218.755 29.2041 218.638 29.1649 218.501 29.1454L218.892 11.454C219.167 11.454 219.441 11.3952 219.715 11.2777C220.538 10.9642 221.048 10.1609 221.028 9.31849ZM218.344 31.0458L217.776 42.6441L213.642 44.662C213.407 44.2506 212.917 44.0743 212.466 44.2506L205.746 29.5176L207.451 21.3478L217.639 29.5568C217.462 29.8115 217.423 30.1445 217.56 30.458C217.697 30.8107 218.011 31.0066 218.344 31.0458ZM244.518 57.5142L264.208 60.884L254.079 77.7133L243.813 58.4742C244.205 58.2783 244.44 57.9257 244.518 57.5142ZM254.02 77.8309L246.889 89.6643L240.404 91.9957L243.01 58.6897C243.225 58.6897 243.441 58.6702 243.637 58.5722C243.656 58.5526 243.696 58.5526 243.715 58.533L254.02 77.8309ZM254.079 77.9484L258.174 85.6284L247.046 89.6251L254.079 77.9484ZM240.306 92.0349L233.371 94.5231L225.279 85.0994L242.324 58.4742C242.501 58.5722 242.696 58.6506 242.912 58.6702L240.306 92.0349ZM223.007 98.3827L224.633 101.4L215.875 101.184C215.875 101.106 215.856 101.047 215.836 100.969L223.007 98.3827ZM215.817 100.851V100.832C215.738 100.655 215.64 100.538 215.503 100.44L220.186 93.1321L222.968 98.3043L215.817 100.851ZM223.065 98.2455L220.225 93.0145L225.221 85.217L233.253 94.5819L223.065 98.2455ZM139.467 82.5917C139.448 82.5329 139.409 82.4742 139.369 82.4154L154.279 70.9934C154.553 71.3656 154.945 71.6203 155.376 71.7379L153.534 78.8301L141.329 85.2953L139.311 83.5321C139.546 83.2774 139.605 82.9248 139.467 82.5917ZM198.635 14.2556L205.629 29.5372L202.631 43.8588L198.517 43.3102L194.834 15.9601L197.4 13.2564L198.635 14.2556ZM197.479 13.1977L197.929 12.7275L198.537 14.0597L197.479 13.1977ZM198.83 14.4123L207.353 21.2891L205.668 29.3805L198.83 14.4123ZM211.859 45.1126L202.729 43.8979L205.688 29.7135L212.349 44.3094C212.055 44.4661 211.879 44.7796 211.859 45.1126ZM218.932 90.6047L215.797 84.786L216.287 74.7942L222.301 81.808L218.932 90.6047ZM222.38 81.906L225.162 85.1386L220.186 92.9165L219.01 90.7419L222.38 81.906ZM213.897 71.9926L216.189 74.6766L215.699 84.6096L214.269 81.9648L213.897 71.9926ZM214.151 81.7493L201.456 58.2195L201.75 57.8669L213.759 71.875L214.151 81.7493ZM215.679 84.8252L214.935 99.7149L214.269 82.2195L215.679 84.8252ZM216.287 74.6374L217.639 47.1306L233.194 53.3412L222.341 81.6905L216.287 74.6374ZM216.189 74.5199L213.877 71.8162L212.878 46.0726C212.976 46.0726 213.074 46.053 213.172 46.0139C213.407 45.9159 213.563 45.7396 213.661 45.5437L217.541 47.0914L216.189 74.5199ZM213.72 45.4457C213.799 45.2302 213.799 44.9951 213.701 44.7796C213.701 44.7796 213.701 44.7796 213.701 44.76L217.776 42.7616L217.56 46.9739L213.72 45.4457ZM213.759 71.6987L201.828 57.7885L212.231 45.8963C212.388 46.0139 212.584 46.0922 212.78 46.0922L213.759 71.6987ZM201.769 57.7101L200.829 56.613C201.103 56.3387 201.201 55.9273 201.044 55.5551C200.927 55.2808 200.692 55.0849 200.417 55.0065L202.729 43.9763L211.879 45.191C211.879 45.289 211.898 45.3869 211.937 45.5045C211.996 45.622 212.055 45.7396 212.153 45.8179L201.769 57.7101ZM214.073 100.792L189.466 90.9966L193.619 77.4391L214.269 100.518C214.171 100.597 214.112 100.694 214.073 100.792ZM158.08 69.2889L180.728 64.2734C180.747 64.3126 180.747 64.3518 180.767 64.3909C180.767 64.4105 180.786 64.4105 180.786 64.4301L158.844 76.048L156.884 71.6399C157.786 71.2089 158.275 70.2293 158.08 69.2889ZM149.42 52.9494L152.594 44.1331L155.611 49.7167C155.219 49.9518 155.043 50.4612 155.219 50.8922C155.278 51.0294 155.376 51.1469 155.474 51.2449L151.027 57.0049L149.42 52.9494ZM150.948 57.1028L145.345 64.3518L149.381 53.1257L150.948 57.1028ZM155.552 51.3036C155.689 51.4016 155.866 51.4604 156.042 51.4604L155.944 67.5452C155.709 67.5452 155.474 67.5844 155.239 67.6824L151.066 57.1028L155.552 51.3036ZM156.14 51.48C156.258 51.48 156.355 51.4604 156.453 51.4016C156.649 51.3232 156.806 51.1861 156.904 51.0098L163.957 54.7322L156.943 67.7803C156.669 67.6432 156.355 67.5648 156.042 67.5452L156.14 51.48ZM167.954 47.5028L181.002 63.3134C180.943 63.3722 180.884 63.4505 180.826 63.5289L164.094 54.7126L167.954 47.5028ZM164.055 54.791L180.786 63.6073C180.708 63.7836 180.688 63.9599 180.708 64.1558L158.06 69.1713C158.04 69.0734 158.001 68.9558 157.962 68.8579C157.766 68.4073 157.433 68.0546 157.041 67.8195L164.055 54.791ZM181.355 63.0979L172.636 41.1355C172.911 41.018 173.146 40.8025 173.302 40.5674L184.626 47.0718L181.766 63.0783C181.629 63.0391 181.492 63.0587 181.355 63.0979ZM200.966 58.6114L198.517 61.413L199.908 56.8481C200.065 56.8873 200.221 56.8873 200.378 56.8481L200.966 58.6114ZM200.496 56.8285C200.515 56.8285 200.515 56.8285 200.535 56.8089C200.555 56.8089 200.555 56.7893 200.574 56.7893L201.338 58.1999L201.064 58.5134L200.496 56.8285ZM198.282 61.8636L193.56 77.2431L189.152 72.306L198.282 61.8636ZM198.341 61.6089L189.074 72.2277L182.315 64.6848C182.569 64.4301 182.667 64.0383 182.53 63.6856L199.32 56.3779C199.438 56.5934 199.614 56.7502 199.81 56.8285L198.341 61.6089ZM188.995 72.306L182.648 79.5746L181.766 64.9395C181.844 64.9199 181.942 64.9199 182.021 64.8807C182.099 64.8416 182.177 64.8024 182.236 64.7436L188.995 72.306ZM200.084 54.9869L198.517 43.4278L202.592 43.9763L200.28 54.9869C200.241 54.9869 200.163 54.9869 200.084 54.9869ZM199.986 55.0065C199.928 55.0261 199.869 55.0457 199.81 55.0653L193.972 42.8204L198.439 43.4082L199.986 55.0065ZM199.712 55.1044C199.575 55.1828 199.457 55.2808 199.359 55.4179L184.724 47.013L185.665 41.7233L193.835 42.8204L199.712 55.1044ZM193.913 42.7029L187.781 29.8702L189.211 21.8964L194.736 16.0776L198.419 43.3102L193.913 42.7029ZM193.776 42.7029L185.684 41.6253L187.742 30.0662L193.776 42.7029ZM184.626 46.9543L173.342 40.4694C173.4 40.3518 173.459 40.2147 173.479 40.0972L185.567 41.7037L184.626 46.9543ZM184.705 47.111L199.32 55.4963C199.203 55.7314 199.183 55.9861 199.281 56.2604L182.491 63.5681C182.354 63.3134 182.119 63.1371 181.864 63.0783L184.705 47.111ZM181.648 64.9591L182.55 79.6921L177.005 86.0399L173.929 84.8252C174.086 84.4725 174.086 84.0611 173.929 83.6888C173.792 83.3558 173.537 83.0815 173.224 82.9443L181.315 64.9003C181.413 64.9395 181.531 64.9591 181.648 64.9591ZM182.55 79.8488L183.079 88.4692L177.103 86.0986L182.55 79.8488ZM182.648 79.7313L189.074 72.3844L193.521 77.3607L189.348 90.977L183.196 88.5084L182.648 79.7313ZM193.639 77.3215L198.439 61.6481L201.005 58.7093L214.602 100.283C214.582 100.283 214.582 100.283 214.563 100.303C214.484 100.342 214.406 100.381 214.347 100.44L193.639 77.3215ZM201.397 58.1216L200.652 56.7502C200.672 56.7306 200.711 56.711 200.731 56.6914L201.671 57.7885L201.397 58.1216ZM194.814 15.8426L194.109 10.6115L197.322 13.1977L194.814 15.8426ZM194.716 15.9405L189.23 21.7005L191.562 8.55441L193.972 10.494L194.716 15.9405ZM189.074 22.0335L187.702 29.7135L185.724 25.5601L189.074 22.0335ZM187.663 29.8898L185.586 41.5861L173.498 39.9796C173.537 39.7249 173.498 39.4506 173.4 39.2155C173.342 39.0588 173.244 38.9216 173.126 38.8041L185.626 25.658L187.663 29.8898ZM172.538 41.1747L181.237 63.1371C181.178 63.1567 181.119 63.1958 181.08 63.235L168.013 47.4049L171.402 41.1159C171.735 41.2727 172.146 41.3118 172.538 41.1747ZM164.016 54.6342L156.963 50.9118C157.061 50.6767 157.08 50.4024 156.982 50.1477C156.845 49.8147 156.512 49.5992 156.179 49.5796L156.434 34.3372C156.551 34.3372 156.649 34.3176 156.767 34.2588C156.845 34.2196 156.904 34.1804 156.963 34.1413L167.895 47.4049L164.016 54.6342ZM156.062 49.5796C155.944 49.5796 155.846 49.5992 155.729 49.6579C155.709 49.6579 155.709 49.6775 155.689 49.6775L152.633 43.9959L156.12 34.298C156.179 34.3176 156.258 34.3372 156.316 34.3372L156.062 49.5796ZM152.574 43.8784L150.262 39.5878L155.748 34.1021C155.827 34.1804 155.905 34.2392 156.003 34.2784L152.574 43.8784ZM152.516 44.0155L149.361 52.8122L145.874 43.9763L150.184 39.6661L152.516 44.0155ZM145.835 43.8588L144.169 39.6269L148.891 37.2367L150.145 39.5486L145.835 43.8588ZM145.737 43.9567L134.902 54.7714L133.609 44.9755L144.052 39.7053L145.737 43.9567ZM145.796 44.0547L149.322 52.9494L145.129 64.6064L137.528 74.4415L134.942 54.9085L145.796 44.0547ZM137.43 74.6962L138.39 82.0235C138.331 82.0431 138.272 82.0627 138.194 82.0823C138.018 82.1607 137.88 82.2782 137.782 82.4154L133.511 79.7313L137.43 74.6962ZM137.528 74.5787L145.012 64.9199L138.86 82.0431C138.742 82.0039 138.625 82.0039 138.507 82.0039L137.528 74.5787ZM145.208 64.6652L150.987 57.2204L155.141 67.7411C154.063 68.2113 153.534 69.4652 154.004 70.5428C154.063 70.6799 154.142 70.817 154.22 70.9346L139.311 82.3566C139.213 82.239 139.095 82.1607 138.958 82.1019L145.208 64.6652ZM155.493 71.777C155.924 71.875 156.375 71.8554 156.806 71.6791L158.765 76.0872L153.691 78.7713L155.493 71.777ZM158.804 76.1852L163.33 86.3925L150.968 89.2333L153.652 78.8889L158.804 76.1852ZM158.883 76.146L180.845 64.5085C180.943 64.6456 181.061 64.7632 181.217 64.8416L173.126 82.8856C172.773 82.7484 172.382 82.7288 172.009 82.8856C171.324 83.1794 170.971 83.9043 171.147 84.5901L163.448 86.3729L158.883 76.146ZM171.167 84.7076V84.7272L163.918 87.4896L163.467 86.4709L171.167 84.7076ZM171.206 84.8252C171.48 85.4521 172.127 85.8047 172.773 85.7068L173.577 89.9582L167.895 96.4627L163.977 87.6072L171.206 84.8252ZM172.891 85.6872C172.969 85.6676 173.067 85.648 173.146 85.6088C173.165 85.6088 173.165 85.5892 173.185 85.5892L174.713 88.6456L173.675 89.8407L172.891 85.6872ZM173.283 85.5501C173.381 85.4913 173.459 85.4325 173.537 85.3737L175.614 87.6268L174.791 88.5672L173.283 85.5501ZM173.596 85.2953C173.714 85.1778 173.792 85.0603 173.871 84.9231L176.907 86.1378L175.673 87.5484L173.596 85.2953ZM177.025 86.177L183.079 88.5868L183.529 96.0708L175.751 87.6268L177.025 86.177ZM183.196 88.626L189.328 91.0553L186.742 99.519L183.666 96.1884L183.196 88.626ZM189.426 91.1141L214.034 100.91C213.994 101.047 213.975 101.204 213.994 101.361L192.62 105.906L186.821 99.6169L189.426 91.1141ZM201.084 58.631L201.377 58.2979L214.151 81.9844L214.857 100.244C214.798 100.244 214.739 100.263 214.7 100.263L201.084 58.631ZM215.777 85.0015L218.873 90.7419L215.209 100.303C215.15 100.283 215.092 100.263 215.013 100.263L215.777 85.0015ZM218.951 90.8594L220.107 93.0145L215.386 100.381C215.366 100.361 215.327 100.361 215.307 100.342L218.951 90.8594ZM225.221 85.0407L222.439 81.7884L233.312 53.3804L241.717 56.7306C241.599 57.0636 241.599 57.4359 241.736 57.7885C241.854 58.0628 242.03 58.2783 242.265 58.435L225.221 85.0407ZM241.736 56.6326L233.332 53.2824L235.134 48.5804L242.05 56.182C241.913 56.2995 241.815 56.4563 241.736 56.6326ZM233.234 53.2432L217.658 47.0326L217.874 42.7224L226.141 38.6669L235.056 48.4824L233.234 53.2432ZM226.239 38.6082L241.756 31.0066L235.114 48.3649L226.239 38.6082ZM226.161 38.5298L219.108 30.7715C219.343 30.5364 219.441 30.1837 219.343 29.8507L245.596 20.9756L241.815 30.8694L226.161 38.5298ZM218.794 30.987C218.873 30.9478 218.951 30.9086 219.03 30.8498L226.063 38.5886L217.874 42.6049L218.442 31.0653C218.559 31.0458 218.677 31.0262 218.794 30.987ZM217.697 29.498L207.47 21.2499L208.039 18.5266L217.756 29.4196C217.737 29.4392 217.717 29.4588 217.697 29.498ZM197.968 12.5315L193.462 2.69647C193.56 2.6377 193.658 2.57892 193.737 2.52015L200.398 9.98461L197.968 12.5315ZM197.89 12.6099L197.4 13.1193L194.089 10.4548L193.051 2.81403C193.149 2.79443 193.266 2.77484 193.364 2.71606L197.89 12.6099ZM193.972 10.3569L191.601 8.45645L192.6 2.83362C192.718 2.85321 192.835 2.85321 192.953 2.83362L193.972 10.3569ZM191.503 8.37808L189.818 7.02625L192.15 2.69647C192.267 2.75525 192.365 2.79443 192.483 2.81403L191.503 8.37808ZM191.484 8.49564L189.113 21.8572L185.684 25.4621L182.942 19.7413L189.759 7.10462L191.484 8.49564ZM185.586 25.5405L173.067 38.7257C172.989 38.6474 172.891 38.5886 172.793 38.5298L182.883 19.8785L185.586 25.5405ZM171.304 41.0571L167.934 47.3069L157.022 34.0825C157.12 34.0041 157.178 33.9062 157.237 33.7886L170.657 39.2743C170.54 39.6074 170.54 39.9992 170.677 40.3518C170.814 40.6653 171.03 40.9004 171.304 41.0571ZM150.204 39.4898L148.969 37.1976L155.552 33.867C155.591 33.9257 155.631 33.9845 155.67 34.0237L150.204 39.4898ZM148.832 37.1584L144.111 39.529L136.058 19.1536L138.135 17.3119L148.832 37.1584ZM144.013 39.5878L133.59 44.858L130.808 23.7968L135.96 19.2319L144.013 39.5878ZM133.511 44.8971L121.247 51.0881L123.559 30.2229L130.71 23.8752L133.511 44.8971ZM121.149 51.1469L115.134 54.1836L112.117 41.4882C112.156 41.4686 112.176 41.4686 112.215 41.449C112.705 41.2531 112.921 40.6849 112.725 40.1951C112.685 40.1167 112.646 40.0384 112.587 39.9796L123.461 30.3209L121.149 51.1469ZM107.65 58.102L114.018 54.8889L116.192 68.6032L109.57 63.7836L107.65 58.102ZM109.433 63.6465L104.202 59.826L107.552 58.1216L109.433 63.6465ZM114.096 54.7126L112 41.5469L115.017 54.2424L114.096 54.7126ZM111.902 41.5274L113.998 54.7714L107.611 58.004L103.575 46.1118L111.079 41.1551C111.275 41.4098 111.588 41.5469 111.902 41.5274ZM107.533 58.0432L104.124 59.7673L94.5239 52.773L94.4651 52.1069L103.497 46.151L107.533 58.0432ZM94.4063 52.6947L94.0145 52.4204L94.3671 52.1853L94.4063 52.6947ZM94.4455 51.9893L93.3484 38.471L98.6577 31.9862L103.438 46.053L94.4455 51.9893ZM94.3475 52.0481L93.9165 52.3224L87.5492 47.6792C87.8235 47.2873 87.9018 46.7584 87.7059 46.2686C87.6276 46.0726 87.51 45.9159 87.3729 45.7788L93.27 38.569L94.3475 52.0481ZM93.8186 52.4008L90.4488 54.6342L87.0594 48.1494C87.2161 48.0514 87.3729 47.9339 87.4708 47.7967L93.8186 52.4008ZM90.4096 54.7714L94.3671 62.3534C94.1124 62.4905 93.9165 62.6669 93.7402 62.8628L86.6676 57.24L90.4096 54.7714ZM90.5075 54.7126L93.9165 52.4595L94.4063 52.8122L95.1508 62.0987C94.9549 62.1183 94.7394 62.1771 94.5435 62.2554C94.5043 62.275 94.4847 62.2946 94.4455 62.2946L90.5075 54.7126ZM94.5239 52.9102L104.006 59.826L97.2667 63.235C96.8749 62.4905 96.0716 62.0791 95.2683 62.1183L94.5239 52.9102ZM104.104 59.8848L109.492 63.8228L111.079 68.466L97.4822 64.724C97.5802 64.293 97.5606 63.8424 97.3647 63.4114C97.3451 63.3722 97.3255 63.3526 97.3255 63.3134L104.104 59.8848ZM109.649 63.9403L116.232 68.7403L116.427 69.9354L111.216 68.5052L109.649 63.9403ZM116.349 68.8187L117.799 69.8766C117.721 69.9942 117.662 70.1313 117.623 70.2685L116.525 69.9746L116.349 68.8187ZM116.427 70.053L116.545 70.7583L111.98 70.8366L111.216 68.6228L116.427 70.053ZM116.545 70.0921L117.583 70.386C117.544 70.5036 117.544 70.6407 117.544 70.7583L116.643 70.7779L116.545 70.0921ZM117.858 69.7983L116.31 68.6815L114.116 54.8302L115.056 54.36L118.622 69.3085C118.563 69.3281 118.504 69.3477 118.445 69.3672C118.21 69.4652 118.014 69.6219 117.858 69.7983ZM115.154 54.3012L121.129 51.2841L119.131 69.2497C118.994 69.2497 118.857 69.2497 118.739 69.2693L115.154 54.3012ZM121.247 51.2253L133.531 45.0147L134.824 54.8693L120.032 69.6415C119.817 69.4456 119.543 69.3085 119.249 69.2693L121.247 51.2253ZM134.844 54.9869L137.43 74.5395L133.453 79.6921L120.307 71.4636C120.522 71.0717 120.581 70.6015 120.385 70.1509C120.307 69.9942 120.228 69.8374 120.111 69.7199L134.844 54.9869ZM119.601 72.0709C119.876 71.9534 120.091 71.777 120.248 71.5419L133.394 79.7705L125.812 89.5664L119.582 72.0905C119.582 72.0709 119.582 72.0709 119.601 72.0709ZM133.472 79.8293L137.763 82.5133C137.626 82.768 137.606 83.0619 137.724 83.3362C137.743 83.395 137.782 83.4341 137.802 83.4929L126.615 91.7998L125.851 89.6643L133.472 79.8293ZM137.861 83.5713C138.018 83.7476 138.233 83.8652 138.468 83.9043L138.233 86.9606L127.007 92.897L126.654 91.8978L137.861 83.5713ZM138.566 83.9239C138.703 83.9239 138.821 83.9043 138.958 83.8456C139.076 83.7868 139.193 83.728 139.271 83.6301L141.25 85.3541L138.331 86.9019L138.566 83.9239ZM141.329 85.4325L146.795 90.2129L137.9 92.27L138.311 87.039L141.329 85.4325ZM141.427 85.3737L153.515 78.9868L150.85 89.2725L146.951 90.1737L141.427 85.3737ZM150.811 89.39L150.145 91.9566C149.969 91.9174 149.773 91.937 149.596 92.0153C149.479 92.0741 149.361 92.1329 149.283 92.2309L147.03 90.2717L150.811 89.39ZM150.929 89.3705L163.369 86.51L163.82 87.5484L150.831 92.5051C150.713 92.2504 150.498 92.0741 150.243 91.9957L150.929 89.3705ZM163.879 87.6268L167.836 96.541L165.289 99.4406L150.85 93.2104C150.929 93.0145 150.929 92.799 150.87 92.6031L163.879 87.6268ZM167.875 96.6586L170.011 101.498L165.387 99.4994L167.875 96.6586ZM167.934 96.5606L173.596 90.0757L176.241 104.162L170.148 101.537L167.934 96.5606ZM174.831 88.6651L175.673 87.7052L183.549 96.2276L184.195 106.768C184.117 106.788 184.019 106.788 183.941 106.827L174.831 88.6651ZM183.666 96.3451L186.703 99.6365L184.509 106.788C184.45 106.768 184.372 106.768 184.293 106.768L183.666 96.3451ZM186.782 99.7345L192.502 105.925L185.214 107.473C185.195 107.434 185.195 107.395 185.175 107.356C185.057 107.101 184.842 106.905 184.607 106.827L186.782 99.7345ZM192.581 106.004L194.677 108.277L185.253 107.748C185.253 107.689 185.253 107.63 185.234 107.571L192.581 106.004ZM194.775 108.394L198.106 112.019L195.284 113.841L185.155 108.139C185.195 108.041 185.234 107.943 185.253 107.845L194.775 108.394ZM198.204 111.96L194.932 108.414L202.984 108.864L198.204 111.96ZM194.834 108.296L192.718 105.984L214.034 101.439C214.053 101.478 214.053 101.517 214.073 101.557C214.092 101.596 214.112 101.635 214.132 101.654L203.16 108.747L194.834 108.296ZM214.171 101.752C214.249 101.85 214.328 101.929 214.426 101.988L210.39 109.158L203.317 108.766L214.171 101.752ZM214.504 102.046C214.719 102.144 214.974 102.183 215.229 102.085L215.327 102.046C215.483 101.968 215.621 101.87 215.699 101.733L228.649 109.824C228.59 109.942 228.551 110.059 228.532 110.197L218.148 109.609H218.03L210.488 109.178L214.504 102.046ZM228.708 109.746L215.758 101.654C215.817 101.537 215.856 101.4 215.875 101.282L224.692 101.498L229.002 109.472C228.884 109.55 228.786 109.628 228.708 109.746ZM224.75 101.4L223.105 98.3435L233.332 94.6602L238.132 100.244C237.72 100.636 237.485 101.145 237.446 101.713L224.75 101.4ZM238.21 100.185L233.449 94.6406L240.306 92.1721L239.718 99.6953C239.405 99.6757 239.092 99.7345 238.778 99.8521C238.563 99.9304 238.367 100.048 238.21 100.185ZM240.404 92.1133L246.811 89.8015L240.698 99.9696C240.424 99.8129 240.13 99.6953 239.816 99.6757L240.404 92.1133ZM246.987 89.7623L258.252 85.7068L261.074 91.0162L241.501 100.851C241.325 100.518 241.09 100.244 240.796 100.048L246.987 89.7623ZM270.869 86.079L261.152 90.9574L258.331 85.6676L272.77 80.4758L270.869 86.079ZM272.907 80.4366L305.37 68.7599L271.007 86.0202L272.907 80.4366ZM261.113 91.0945L265.599 99.4994C265.305 99.6757 265.149 99.9892 265.149 100.303L241.736 101.654C241.717 101.419 241.678 101.184 241.58 100.969C241.58 100.949 241.56 100.93 241.56 100.91L261.113 91.0945ZM265.697 99.4406L261.211 91.0358L270.83 86.1966L266.344 99.3623C266.148 99.3035 265.932 99.3035 265.717 99.4014C265.717 99.4406 265.697 99.4406 265.697 99.4406ZM305.821 67.9958C305.802 68.1526 305.821 68.2897 305.88 68.4464L272.946 80.2995L278.706 63.3722L305.821 67.9958ZM272.829 80.3386L258.291 85.5696L254.158 77.8309L264.345 60.9036L278.608 63.3526L272.829 80.3386ZM298.494 4.85156L278.647 63.2546L264.404 60.8252L298.161 4.71442C298.259 4.7536 298.376 4.81239 298.494 4.85156ZM298.063 4.65565L264.287 60.8056L244.558 57.4359C244.597 57.1812 244.558 56.9265 244.46 56.6718C244.401 56.515 244.303 56.3779 244.185 56.2604L297.691 4.38136C297.808 4.45973 297.926 4.55769 298.063 4.65565ZM297.612 4.28341L244.107 56.1624C243.696 55.7706 243.069 55.6334 242.52 55.8685C242.383 55.9273 242.246 56.0057 242.148 56.1036L235.212 48.4628L241.913 30.9478L297.318 3.8132C297.377 3.98953 297.495 4.14626 297.612 4.28341ZM297.22 3.65646C297.22 3.67606 297.24 3.69566 297.259 3.71525L241.972 30.7911L245.753 20.9364L297.201 3.55851C297.181 3.59769 297.201 3.61729 297.22 3.65646ZM297.064 3.02953C297.083 3.16668 297.103 3.32341 297.142 3.46055L245.772 20.7993L251.121 6.83034L297.064 3.02953ZM245.655 20.858L219.323 29.7527V29.7331C219.245 29.5568 219.128 29.4196 218.99 29.3217L231.588 8.45645L251.043 6.84993L245.655 20.858ZM282.291 -74.8282L251.043 6.73238L231.607 8.3389L281.939 -75.0045C282.056 -74.9261 282.174 -74.8869 282.291 -74.8282ZM281.86 -75.0437L231.51 8.35849L221.048 9.22053C221.028 8.98543 220.989 8.73074 220.891 8.49564C220.754 8.14298 220.519 7.84911 220.244 7.6336L281.802 -75.1024C281.802 -75.0829 281.821 -75.0633 281.86 -75.0437ZM281.566 -75.2788C281.606 -75.2396 281.645 -75.22 281.684 -75.1808L220.127 7.55523C219.794 7.32013 219.421 7.18298 219.03 7.16339L219.656 -10.1557L281.566 -75.2788ZM219.539 -9.99899L218.932 7.18298C218.638 7.18298 218.363 7.24176 218.07 7.35931C216.972 7.80992 216.463 9.08339 216.933 10.1609C217.266 10.9446 218.011 11.4344 218.814 11.4736L218.422 29.1649C218.305 29.1649 218.187 29.1845 218.089 29.2433C218.011 29.2825 217.932 29.3217 217.874 29.3805L208.097 18.4287L212.466 -2.51494L219.539 -9.99899ZM220.636 -40.6013L219.539 -10.1753L212.486 -2.75004L220.401 -40.6209C220.479 -40.6013 220.558 -40.6013 220.636 -40.6013ZM219.715 -40.856C219.892 -40.7581 220.088 -40.6797 220.303 -40.6405L212.349 -2.59331L200.476 9.88665L193.835 2.42219C194.266 2.01076 194.422 1.36423 194.168 0.796066C194.05 0.521782 193.874 0.306274 193.639 0.149544L219.715 -40.856ZM191.444 0.796066C191.288 1.14872 191.288 1.56015 191.444 1.9324C191.581 2.24586 191.797 2.48096 192.052 2.6377L189.72 6.94788L169.933 -8.98022C169.972 -9.039 170.031 -9.11736 170.05 -9.17614L191.444 0.796066ZM169.893 -8.90186L189.681 7.04585L182.883 19.6238L169.423 -8.5492C169.6 -8.64716 169.756 -8.76472 169.893 -8.90186ZM169.325 -8.51003L182.824 19.7413L172.695 38.471C172.48 38.3731 172.244 38.3143 171.99 38.3143L168.914 -8.39247C169.051 -8.41206 169.188 -8.45125 169.325 -8.51003ZM168.816 -8.39247L171.892 38.3143C171.755 38.3339 171.617 38.3731 171.48 38.4123C171.304 38.4906 171.128 38.6082 171.01 38.7257L158.373 26.6376L168.424 -8.47084C168.542 -8.41206 168.679 -8.39247 168.816 -8.39247ZM167.66 -8.90186C167.836 -8.70594 168.071 -8.5492 168.326 -8.47084L158.295 26.5788L143.562 12.4924L167.66 -8.90186ZM143.484 12.5707L158.256 26.6964L156.61 32.4564C156.414 32.4172 156.218 32.4172 156.022 32.5151C155.964 32.5347 155.905 32.5739 155.846 32.6131L141.329 14.4711L143.484 12.5707ZM128.241 -2.00555L143.405 12.4924L141.27 14.3928L128.202 -1.96637C128.202 -1.96637 128.222 -1.98596 128.241 -2.00555ZM128.104 -1.888L141.191 14.4711L138.174 17.1356L127.967 -1.80964C128.026 -1.82922 128.065 -1.86841 128.104 -1.888ZM127.869 -1.75086L138.076 17.214L136 19.0556L127.791 -1.71168C127.83 -1.73127 127.849 -1.75086 127.869 -1.75086ZM127.712 -1.69209L135.941 19.1144L130.808 23.6597L127.477 -1.63331C127.556 -1.63331 127.634 -1.6529 127.712 -1.69209ZM127.36 -1.61372L130.71 23.7576L123.598 30.0858L127.125 -1.59412C127.203 -1.59412 127.281 -1.59412 127.36 -1.61372ZM126.36 -1.888C126.556 -1.75086 126.772 -1.6529 127.027 -1.61372L123.5 30.1837L112.529 39.9208C112.254 39.6465 111.843 39.5682 111.49 39.7053C111.451 39.7249 111.392 39.7445 111.353 39.7837L102.831 26.9119L126.36 -1.888ZM102.733 26.9903L111.236 39.8425C110.903 40.0971 110.785 40.5478 110.942 40.9592C110.961 40.9984 110.981 41.0376 111.001 41.0767L103.536 45.9943L98.7361 31.8882L102.733 26.9903ZM91.2716 9.88665C91.3108 9.86706 91.35 9.84747 91.3892 9.82787L102.674 26.8923L98.6969 31.7511L91.2716 9.88665ZM91.1541 9.92583L98.6185 31.849L93.3288 38.3143L91.0365 9.94543C91.0757 9.94543 91.1149 9.94543 91.1541 9.92583ZM90.9386 9.96502L93.2504 38.4319L87.2945 45.72C87.0986 45.5632 86.8439 45.4457 86.5892 45.4065L90.8602 9.96502C90.8798 9.96502 90.8994 9.96502 90.9386 9.96502ZM90.5859 9.90624C90.6447 9.92583 90.6839 9.94543 90.7427 9.94543L86.4716 45.3869C86.2365 45.3673 86.0014 45.4065 85.7663 45.5045C85.4529 45.6416 85.1982 45.8767 85.0414 46.151L77.2047 41.8996L90.5859 9.90624ZM47.2881 25.8735L77.0676 41.9584L74.9125 47.1306L73.9525 47.1502L47.2489 25.9323C47.2489 25.9127 47.2685 25.8931 47.2881 25.8735ZM46.8571 26.2458C46.9746 26.187 47.0922 26.1086 47.1706 26.0107L73.7566 47.1502L55.2032 47.5616L46.8571 26.2458ZM63.275 71.1893L1.87438 49.0898C1.89398 49.0114 1.91357 48.933 1.91357 48.8547L55.1444 47.6792L64.0587 70.386C63.6864 70.5428 63.4121 70.8366 63.275 71.1893ZM64.1566 70.3468L55.262 47.6596L73.8937 47.2482L74.599 47.8163L65.1558 70.3664C64.8619 70.2293 64.4897 70.2293 64.1566 70.3468ZM65.2734 70.386L74.697 47.8751L81.0251 52.9102L65.5672 70.5819C65.4693 70.5036 65.3713 70.4448 65.2734 70.386ZM65.6456 70.6603L81.1035 52.9885L86.4716 57.2595L65.8415 70.8562C65.7827 70.7779 65.724 70.7191 65.6456 70.6603ZM66.057 71.346C66.0374 71.2872 66.0178 71.2285 65.9982 71.1501C65.9591 71.0717 65.9395 71.013 65.8807 70.9346L86.55 57.2987L93.6422 62.9411C93.27 63.4309 93.1328 64.0579 93.27 64.6848L66.057 71.346ZM66.1158 71.6399C66.1158 71.5811 66.0962 71.5223 66.0962 71.4636L93.3092 64.8024C93.3288 64.9003 93.368 64.9787 93.4071 65.0767C93.8577 66.1738 95.1312 66.6832 96.2088 66.2326C96.3655 66.1542 96.5222 66.0758 96.6594 65.9779L100.656 71.0522L66.1158 71.6399ZM100.793 71.0325L96.7377 65.8995C97.0708 65.6252 97.3059 65.253 97.4234 64.8416L111.098 68.6032L111.863 70.8562L100.793 71.0325ZM120.091 95.5223L100.872 71.1501L111.902 70.9542L120.228 95.4439C120.189 95.4635 120.15 95.4831 120.091 95.5223ZM120.346 95.4047L112.039 70.9542L116.584 70.8758L120.463 95.3655C120.405 95.3851 120.385 95.4047 120.346 95.4047ZM120.561 95.3655L116.682 70.8758L117.564 70.8562C117.583 70.9934 117.623 71.1501 117.681 71.2872C117.975 71.9925 118.759 72.3452 119.484 72.1297L125.734 89.6643L121.188 95.5223C120.992 95.4047 120.777 95.3459 120.561 95.3655ZM121.267 95.6006L125.773 89.7819L126.517 91.8782L121.365 95.6986C121.325 95.6594 121.306 95.6202 121.267 95.6006ZM121.423 95.7769L126.537 91.9762L126.889 92.9557L121.443 95.8357C121.443 95.8161 121.443 95.7965 121.423 95.7769ZM121.541 96.0316C121.541 96.0121 121.521 95.9729 121.521 95.9533C121.521 95.9533 121.521 95.9533 121.521 95.9337L126.948 93.0537L127.516 94.6406L121.541 96.0316ZM127.614 94.621L127.027 92.9949L138.194 87.0782L137.782 92.27L127.614 94.621ZM135.549 116.897L127.634 94.719L137.782 92.3876L135.863 116.858C135.765 116.858 135.647 116.858 135.549 116.897ZM135.96 116.858L137.88 92.368L146.893 90.2913L149.204 92.3092C149.009 92.5639 148.93 92.9361 149.067 93.2692C149.146 93.4455 149.283 93.6023 149.44 93.7002L136.274 116.975C136.176 116.916 136.078 116.877 135.96 116.858ZM136.685 117.387C136.607 117.23 136.509 117.112 136.372 117.014L149.538 93.7394C149.773 93.857 150.067 93.8766 150.321 93.759C150.38 93.7394 150.439 93.7002 150.478 93.661L159.118 105.044C158.844 105.318 158.726 105.73 158.883 106.102C158.883 106.121 158.902 106.121 158.902 106.141L136.685 117.387ZM159.412 104.887C159.333 104.926 159.275 104.965 159.216 105.005L150.576 93.6023C150.674 93.5239 150.752 93.4259 150.811 93.3084L165.211 99.519L160.391 105.024C160.137 104.809 159.764 104.73 159.412 104.887ZM160.724 105.828C160.724 105.69 160.724 105.534 160.646 105.397C160.607 105.299 160.529 105.201 160.47 105.122L165.309 99.5974L170.07 101.635L172.323 106.729L160.724 105.828ZM170.226 101.694L176.28 104.299L176.79 107.062L172.46 106.729L170.226 101.694ZM179.631 122.931L172.499 106.846L176.79 107.179L179.728 122.892C179.709 122.892 179.67 122.912 179.631 122.931ZM179.846 122.872L176.907 107.199L183.353 107.708C183.353 107.845 183.373 107.963 183.431 108.1C183.627 108.59 184.195 108.805 184.685 108.61C184.881 108.531 185.018 108.394 185.116 108.237L195.206 113.899L180.747 123.264C180.532 122.97 180.179 122.833 179.846 122.872ZM180.884 123.597C180.865 123.558 180.865 123.499 180.845 123.46C180.826 123.421 180.806 123.401 180.786 123.362L195.304 113.978L203.474 118.562C203.356 118.836 203.317 119.15 203.376 119.444L180.884 123.597ZM204.238 117.779C204.081 117.837 203.944 117.935 203.826 118.033L198.282 112.019L203.18 108.864L210.35 109.276L205.531 117.857C205.139 117.641 204.669 117.602 204.238 117.779ZM219.735 113.762L219.637 113.801L206.217 118.66C206.197 118.641 206.197 118.601 206.177 118.582C206.06 118.288 205.864 118.072 205.609 117.916L210.448 109.295L218.089 109.726H218.207L228.532 110.314C228.532 110.392 228.551 110.471 228.571 110.569L219.735 113.762ZM229.119 109.413C229.1 109.413 229.1 109.432 229.08 109.432L224.809 101.498L237.446 101.811C237.446 102.086 237.505 102.36 237.622 102.634C237.701 102.83 237.818 103.026 237.955 103.183L230.216 109.648C229.942 109.354 229.511 109.236 229.119 109.413ZM230.432 110.255C230.432 110.138 230.412 110.02 230.354 109.922C230.334 109.863 230.295 109.805 230.256 109.746L237.994 103.261C238.504 103.81 239.248 104.064 239.993 103.908L240.091 103.888C240.189 103.868 240.287 103.829 240.385 103.79C240.443 103.77 240.502 103.731 240.561 103.712L240.659 103.653C241.325 103.261 241.717 102.536 241.697 101.792L265.109 100.44C265.109 100.518 265.129 100.616 265.168 100.694C265.266 100.91 265.423 101.067 265.599 101.165L265.697 101.204C265.873 101.282 266.069 101.282 266.265 101.243L269.263 111.137L230.432 110.255ZM273.945 126.536C273.691 126.634 273.514 126.85 273.416 127.085L247.065 116.975L230.393 110.569C230.412 110.49 230.432 110.432 230.432 110.353L269.341 111.235L273.965 126.536H273.945ZM275.238 127.202C275.219 127.143 275.219 127.104 275.199 127.045C275.023 126.614 274.533 126.379 274.082 126.497L269.459 111.235L332.094 112.645L332.603 112.724C332.603 112.743 332.603 112.783 332.603 112.802L275.238 127.202Z" fill="url(#paint0_linear_1_13389)"/>
<path d="M319.829 102.536C319.653 102.105 319.143 101.909 318.712 102.085C318.418 102.203 318.223 102.497 318.203 102.791L262.053 101.537L259.388 92.7204C259.408 92.7204 259.408 92.7204 259.428 92.7008C259.859 92.5244 260.055 92.0151 259.878 91.584C259.859 91.5253 259.819 91.4665 259.78 91.4273L294.614 63.8617C294.732 63.9792 294.869 64.0772 295.026 64.1164L295.124 64.136C295.281 64.1556 295.437 64.1556 295.594 64.0772C296.025 63.9009 296.221 63.3915 296.045 62.9605C295.868 62.5294 295.359 62.3335 294.928 62.5099C294.673 62.6274 294.497 62.8429 294.438 63.0976L270.36 58.9833L287.992 7.10435C288.404 7.22189 288.835 7.20231 289.266 7.02598C290.245 6.61456 290.696 5.49782 290.285 4.53783C289.873 3.57783 288.757 3.10763 287.797 3.51906C287.032 3.83252 286.601 4.5966 286.641 5.36068L245.87 8.73046L273.612 -63.7199C274.023 -63.6023 274.474 -63.6219 274.886 -63.7983C275.865 -64.2097 276.316 -65.3264 275.904 -66.2864C275.493 -67.2464 274.376 -67.7166 273.416 -67.3052C272.456 -66.8938 271.986 -65.777 272.397 -64.817C272.495 -64.5819 272.632 -64.386 272.809 -64.2097L217.854 -6.39438L218.814 -33.3331C219.049 -33.3331 219.304 -33.3722 219.539 -33.4898C220.518 -33.9012 220.969 -35.0179 220.558 -35.9779C220.146 -36.9379 219.029 -37.4081 218.069 -36.9967C217.09 -36.5853 216.639 -35.4686 217.051 -34.5086C217.207 -34.1167 217.482 -33.8228 217.815 -33.6269L194.657 2.81375C194.305 2.61783 193.893 2.57865 193.482 2.73538C193.188 2.85294 192.953 3.08803 192.816 3.34273L173.831 -5.53234C173.968 -5.84581 173.988 -6.21806 173.831 -6.55112C173.557 -7.21724 172.793 -7.5307 172.107 -7.25642C171.441 -6.98213 171.128 -6.21806 171.402 -5.53234C171.441 -5.43438 171.5 -5.33643 171.559 -5.25806L150.125 13.7655L136.646 0.874168C136.979 0.501923 137.097 -0.0270538 136.881 -0.516853C136.607 -1.18297 135.843 -1.49644 135.157 -1.22215C134.491 -0.947868 134.177 -0.183792 134.452 0.501915C134.53 0.697838 134.667 0.854568 134.804 0.991714L113.939 26.5786L103.928 11.4341C104.241 11.199 104.359 10.7876 104.202 10.4349C104.026 10.0039 103.516 9.80801 103.085 9.98434C102.654 10.1607 102.458 10.67 102.635 11.1011C102.713 11.297 102.87 11.4537 103.046 11.5321L91.1343 39.9597L64.6658 25.6773C64.7638 25.4618 64.7834 25.2267 64.6854 24.9916C64.5091 24.5606 63.9997 24.3647 63.5687 24.541C63.1377 24.7173 62.9418 25.2267 63.1181 25.6577C63.2944 26.0692 63.745 26.2651 64.1565 26.1279L71.5817 45.0536L24.3068 46.092C24.3068 46.0136 24.2872 45.9156 24.248 45.8373C24.0717 45.4062 23.5623 45.2103 23.1313 45.3867C22.7003 45.563 22.5044 46.0724 22.6807 46.5034C22.857 46.9344 23.3664 47.1303 23.7974 46.954C24.0129 46.856 24.1697 46.6993 24.248 46.5034L78.8111 66.1539C78.7131 66.4282 78.7327 66.7613 78.8503 67.0551C79.1246 67.7213 79.8886 68.0347 80.5744 67.7605C81.0642 67.5449 81.3776 67.0747 81.3776 66.5654L112.156 66.0364L129.279 87.7245C129.005 87.9596 128.907 88.3514 129.044 88.6845C129.221 89.1155 129.73 89.3114 130.161 89.1351C130.533 88.9783 130.729 88.5865 130.671 88.1947L135.98 86.98L143.013 106.689C142.582 106.866 142.386 107.375 142.563 107.786C142.739 108.217 143.248 108.413 143.679 108.237C144.091 108.061 144.287 107.59 144.15 107.179L163.918 97.1873C164.133 97.5399 164.564 97.6967 164.956 97.5203C165.23 97.4028 165.407 97.1677 165.465 96.8934L175.83 97.6967L182.177 112.038C181.785 112.234 181.609 112.704 181.785 113.115C181.962 113.546 182.471 113.742 182.902 113.566C183.196 113.448 183.392 113.174 183.412 112.861V112.763C183.412 112.724 183.412 112.704 183.412 112.665L203.395 108.962C203.415 109.021 203.434 109.079 203.454 109.119C203.728 109.785 204.492 110.098 205.178 109.824C205.276 109.785 205.354 109.726 205.433 109.667L205.511 109.608C205.629 109.51 205.707 109.413 205.785 109.295L205.825 109.217C205.922 109.04 205.962 108.844 205.962 108.629V108.531C205.962 108.433 205.942 108.355 205.922 108.257L225.808 101.066C225.945 101.4 226.298 101.595 226.651 101.576H226.749C226.788 101.576 226.847 101.556 226.886 101.537L226.964 101.497C226.964 101.497 226.984 101.497 226.984 101.478L227.062 101.439C227.082 101.419 227.101 101.4 227.121 101.4L227.199 101.341C227.278 101.262 227.317 101.184 227.356 101.106L265.599 115.78C265.579 115.839 265.579 115.897 265.579 115.956V116.054C265.579 116.133 265.599 116.23 265.638 116.309C265.736 116.544 265.913 116.701 266.128 116.779L266.285 116.818C266.441 116.838 266.598 116.818 266.735 116.759C267.088 116.603 267.284 116.25 267.245 115.878L284.505 111.548L284.603 111.528L318.242 103.084C318.242 103.104 318.262 103.143 318.262 103.163C318.281 103.182 318.281 103.202 318.301 103.241L318.046 103.515L318.379 103.378L318.438 103.457C318.458 103.476 318.497 103.515 318.536 103.535L318.614 103.594C318.83 103.711 319.104 103.751 319.359 103.633C319.809 103.457 320.005 102.967 319.829 102.536ZM294.556 63.7833L259.721 91.3489C259.643 91.251 259.526 91.1726 259.408 91.1334L263.424 79.3392L294.516 63.7245C294.536 63.7441 294.556 63.7637 294.556 63.7833ZM203.493 108.022L196.283 103.986L198.752 102.379L203.689 107.728C203.611 107.826 203.552 107.924 203.493 108.022ZM185.665 98.1277L179.356 95.4044L176.985 82.7481L177.926 81.6706L185.978 97.7946C185.841 97.8534 185.743 97.9709 185.665 98.1277ZM185.586 98.3824L179.826 97.9318L179.376 95.5024L185.625 98.2061C185.606 98.2648 185.586 98.3236 185.586 98.3824ZM89.2731 44.6422L91.1735 40.0969L98.1482 43.8585C98.0698 44.0348 98.0306 44.2503 98.0306 44.4462L89.2731 44.6422ZM88.9596 45.1711L88.4502 44.7597L89.136 44.7401L88.9596 45.1711ZM98.0502 44.5442C98.0698 44.6618 98.0894 44.7989 98.1482 44.9165C98.2265 45.0928 98.3441 45.2691 98.4812 45.3867L94.6804 49.7164L89.038 45.2299L89.2339 44.7401L98.0502 44.5442ZM98.5596 45.4454C98.9123 45.7197 99.4216 45.7981 99.8723 45.6217C99.8918 45.6217 99.9114 45.6022 99.931 45.6022L102.948 51.3817L99.5784 53.5956L94.7784 49.7948L98.5596 45.4454ZM160.822 32.7696L154.984 35.7475L145.462 18.0757L148.146 15.6855L161.038 31.8096C160.783 32.0447 160.685 32.4365 160.822 32.7696ZM174.341 37.5891L162.409 32.7108C162.468 32.5149 162.468 32.2993 162.39 32.1034C162.292 31.8683 162.096 31.7116 161.88 31.6332L163.33 26.559L174.517 37.2561C174.458 37.3736 174.38 37.4716 174.341 37.5891ZM207.431 19.1337L206.922 21.5631L199.242 15.3721L198.615 13.9811L200.809 11.6888L207.431 19.1337ZM200.848 11.63L211.291 0.639061L207.451 19.0357L200.848 11.63ZM219.069 11.0423L228.316 10.2782L217.149 28.7728C217.051 28.7141 216.933 28.6945 216.816 28.6749L217.168 12.9623C217.403 12.9623 217.658 12.9231 217.893 12.8055C218.638 12.4921 219.069 11.7868 219.069 11.0423ZM216.678 30.3598L216.169 40.665L212.486 42.4675C212.27 42.1148 211.839 41.9581 211.447 42.0952L205.472 29.0079L207 21.7394L216.051 29.0471C215.895 29.2822 215.856 29.5761 215.973 29.8504C216.091 30.1443 216.365 30.3206 216.678 30.3598ZM239.934 53.8895L257.429 56.887L248.417 71.8551L239.287 54.7711C239.64 54.5556 239.875 54.2421 239.934 53.8895ZM248.397 71.9335L242.069 82.4543L236.309 84.531L238.621 54.9278C238.817 54.9278 238.993 54.9082 239.189 54.8299C239.209 54.8299 239.229 54.8103 239.248 54.7907L248.397 71.9335ZM248.437 72.0315L252.081 78.8494L242.206 82.3955L248.437 72.0315ZM236.192 84.5702L230.02 86.7841L222.83 78.4184L237.994 54.7515C238.151 54.8495 238.327 54.9082 238.504 54.9278L236.192 84.5702ZM220.812 90.193L222.262 92.8575L214.484 92.6616C214.484 92.6028 214.464 92.544 214.464 92.4657L220.812 90.193ZM214.425 92.4069V92.3873C214.367 92.2306 214.269 92.113 214.131 92.0347L218.285 85.5302L220.773 90.1342L214.425 92.4069ZM220.851 90.0755L218.344 85.4126L222.791 78.4771L229.942 86.8036L220.851 90.0755ZM146.559 76.1653C146.54 76.1065 146.501 76.0674 146.481 76.0086L159.725 65.86C159.98 66.1931 160.332 66.4086 160.705 66.5262L159.079 72.8151L148.225 78.5555L146.442 76.9882C146.638 76.7923 146.697 76.4592 146.559 76.1653ZM199.163 15.4504L205.374 29.0275L202.709 41.7622L199.046 41.2724L195.774 16.959L198.066 14.5492L199.163 15.4504ZM198.125 14.4904L198.536 14.0594L199.085 15.2349L198.125 14.4904ZM199.32 15.568L206.902 21.6806L205.394 28.8708L199.32 15.568ZM210.918 42.8593L202.807 41.7818L205.433 29.1843L211.369 42.154C211.095 42.2912 210.918 42.5654 210.918 42.8593ZM217.188 83.2967L214.406 78.1245L214.837 69.2494L220.185 75.4796L217.188 83.2967ZM220.264 75.558L222.732 78.438L218.304 85.3539L217.266 83.4143L220.264 75.558ZM212.701 66.7613L214.739 69.1515L214.308 77.9678L213.034 75.6167L212.701 66.7613ZM212.956 75.4208L201.671 54.4968L201.945 54.1834L212.623 66.6241L212.956 75.4208ZM214.308 78.1441L213.661 91.3685L213.054 75.8127L214.308 78.1441ZM214.856 69.1123L216.071 44.6618L229.883 50.167L220.224 75.3621L214.856 69.1123ZM214.758 68.9947L212.701 66.6045L211.82 43.7214C211.898 43.7214 211.996 43.7018 212.074 43.6626C212.27 43.5842 212.427 43.4275 212.505 43.2316L215.953 44.603L214.758 68.9947ZM212.545 43.1532C212.603 42.9573 212.603 42.7614 212.525 42.5654C212.525 42.5654 212.525 42.5654 212.525 42.5459L216.149 40.763L215.973 44.505L212.545 43.1532ZM212.603 66.487L201.985 54.1246L211.232 43.545C211.369 43.6626 211.545 43.7214 211.722 43.7214L212.603 66.487ZM201.926 54.0462L201.103 53.0862C201.358 52.8511 201.436 52.4789 201.299 52.1458C201.201 51.8911 200.985 51.7344 200.731 51.656L202.788 41.8601L210.918 42.9377C210.918 43.0356 210.938 43.114 210.977 43.212C211.016 43.3099 211.095 43.4079 211.173 43.4863L201.926 54.0462ZM212.878 92.3481L190.994 83.6494L194.677 71.6004L213.034 92.113C212.976 92.1718 212.917 92.2502 212.878 92.3481ZM163.114 64.3515L183.255 59.8846C183.255 59.9238 183.274 59.9433 183.294 59.9825C183.294 60.0021 183.314 60.0021 183.314 60.0217L163.8 70.3466L162.057 66.4282C162.86 66.056 163.271 65.1939 163.114 64.3515ZM155.415 49.834L158.236 41.9973L160.901 46.954C160.548 47.1695 160.391 47.6201 160.568 47.9924C160.626 48.1099 160.705 48.2275 160.803 48.3058L156.845 53.4193L155.415 49.834ZM156.767 53.5172L151.79 59.9629L155.376 49.9907L156.767 53.5172ZM160.861 48.3646C160.979 48.443 161.136 48.5017 161.292 48.5017L161.214 62.8037C160.999 62.8037 160.803 62.8429 160.587 62.9213L156.865 53.5172L160.861 48.3646ZM161.39 48.5213C161.488 48.5213 161.586 48.5017 161.684 48.4626C161.861 48.3842 161.998 48.2666 162.076 48.1099L168.345 51.4209L162.115 63.0192C161.861 62.9017 161.586 62.8233 161.312 62.8233L161.39 48.5213ZM171.892 44.9752L183.49 59.0225C183.431 59.0813 183.372 59.1401 183.333 59.1989L168.463 51.3621L171.892 44.9752ZM168.424 51.4601L183.294 59.2968C183.216 59.4535 183.196 59.6103 183.235 59.7866L163.095 64.2535C163.075 64.1556 163.036 64.0576 162.997 63.9792C162.821 63.5678 162.527 63.2543 162.174 63.0584L168.424 51.4601ZM183.784 58.8462L176.045 39.3328C176.3 39.2152 176.496 39.0389 176.633 38.8234L186.683 44.603L184.156 58.8266C184.038 58.807 183.921 58.807 183.784 58.8462ZM201.24 54.8495L199.065 57.3376L200.3 53.2821C200.437 53.3213 200.574 53.3213 200.731 53.2821L201.24 54.8495ZM200.809 53.2625C200.829 53.2625 200.829 53.2625 200.848 53.243C200.868 53.243 200.868 53.2234 200.887 53.2234L201.554 54.4772L201.299 54.7515L200.809 53.2625ZM198.83 57.7491L194.638 71.4241L190.719 67.0356L198.83 57.7491ZM198.909 57.514L190.66 66.9572L184.665 60.2568C184.901 60.0217 184.979 59.6886 184.861 59.3752L199.771 52.8707C199.869 53.0666 200.025 53.2038 200.221 53.2821L198.909 57.514ZM190.602 67.0356L184.959 73.5008L184.176 60.4919C184.254 60.4919 184.332 60.4723 184.411 60.4331C184.489 60.394 184.548 60.3548 184.607 60.3156L190.602 67.0356ZM200.456 51.6364L199.065 41.3703L202.69 41.8601L200.652 51.656C200.574 51.6364 200.515 51.6364 200.456 51.6364ZM200.358 51.656C200.3 51.6756 200.26 51.6756 200.202 51.6952L195.01 40.8218L198.967 41.3507L200.358 51.656ZM200.104 51.7344C199.986 51.7932 199.869 51.8911 199.79 52.0087L186.781 44.5442L187.624 39.8422L194.873 40.8022L200.104 51.7344ZM194.951 40.7238L189.505 29.3214L190.758 22.2292L195.676 17.057L198.948 41.2528L194.951 40.7238ZM194.853 40.7042L187.663 39.7442L189.485 29.4781L194.853 40.7042ZM186.703 44.4854L176.692 38.745C176.75 38.6471 176.79 38.5295 176.809 38.412L187.545 39.8422L186.703 44.4854ZM186.781 44.6422L199.771 52.1066C199.673 52.3026 199.653 52.5572 199.731 52.7727L184.822 59.2772C184.705 59.0421 184.509 58.8854 184.274 58.8266L186.781 44.6422ZM184.058 60.4919L184.861 73.5792L179.924 79.2216L177.201 78.1441C177.338 77.8306 177.338 77.4584 177.201 77.1253C177.083 76.8314 176.848 76.5963 176.574 76.4592L183.764 60.4331C183.843 60.4723 183.96 60.4919 184.058 60.4919ZM184.861 73.7359L185.332 81.3963L180.022 79.2804L184.861 73.7359ZM184.959 73.6184L190.66 67.0943L194.618 71.5221L190.915 83.6102L185.43 81.4355L184.959 73.6184ZM194.716 71.5025L198.987 57.5727L201.26 54.967L213.348 91.9171C213.328 91.9171 213.328 91.9171 213.309 91.9367C213.23 91.9759 213.171 92.015 213.113 92.0542L194.716 71.5025ZM201.612 54.4185L200.946 53.2038C200.966 53.1842 200.985 53.1646 201.025 53.145L201.867 54.1246L201.612 54.4185ZM195.754 16.8415L195.127 12.1982L197.988 14.51L195.754 16.8415ZM195.676 16.9394L190.798 22.0725L192.874 10.3958L195.01 12.1198L195.676 16.9394ZM190.66 22.3467L189.446 29.1647L187.683 25.4814L190.66 22.3467ZM189.407 29.341L187.545 39.7442L176.809 38.314C176.848 38.0789 176.809 37.8438 176.711 37.6283C176.652 37.4912 176.574 37.3736 176.476 37.2561L187.585 25.5598L189.407 29.341ZM175.967 39.3524L183.705 58.8854C183.647 58.905 183.607 58.9442 183.568 58.9638L171.95 44.8969L174.948 39.2936C175.261 39.4503 175.614 39.4895 175.967 39.3524ZM168.385 51.323L162.115 48.0119C162.213 47.7964 162.233 47.5613 162.135 47.3262C161.998 47.0324 161.723 46.8364 161.41 46.8169L161.645 33.2789C161.743 33.2789 161.841 33.2593 161.939 33.2202C161.998 33.2006 162.057 33.1614 162.115 33.1222L171.833 44.8969L168.385 51.323ZM161.312 46.8364C161.214 46.8364 161.116 46.856 161.018 46.8952C160.999 46.8952 160.999 46.9148 160.979 46.9148L158.275 41.8797L161.371 33.2594C161.43 33.2789 161.488 33.2789 161.547 33.2985L161.312 46.8364ZM158.217 41.7622L156.159 37.9418L161.038 33.0634C161.116 33.1222 161.194 33.181 161.273 33.2202L158.217 41.7622ZM158.177 41.8797L155.376 49.6968L152.28 41.8405L156.12 38.0201L158.177 41.8797ZM152.221 41.7426L150.732 37.981L154.925 35.8651L156.042 37.9222L152.221 41.7426ZM152.143 41.821L142.524 51.4405L141.368 42.7222L150.654 38.0397L152.143 41.821ZM152.182 41.9189L155.317 49.834L151.595 60.198L144.835 68.9164L142.543 51.5581L152.182 41.9189ZM144.757 69.1515L145.619 75.6559C145.56 75.6755 145.501 75.6755 145.443 75.7147C145.286 75.7735 145.168 75.891 145.09 76.0086L141.289 73.638L144.757 69.1515ZM144.855 69.0535L151.497 60.4723L146.03 75.6951C145.932 75.6755 145.835 75.6559 145.717 75.6559L144.855 69.0535ZM151.673 60.2372L156.806 53.6152L160.509 62.9605C159.549 63.3719 159.098 64.4886 159.49 65.4486C159.549 65.5662 159.608 65.6837 159.686 65.8013L146.422 75.9498C146.344 75.8519 146.226 75.7735 146.109 75.7147L151.673 60.2372ZM160.803 66.5654C161.175 66.6437 161.586 66.6241 161.959 66.4674L163.702 70.3857L159.196 72.7759L160.803 66.5654ZM163.741 70.4837L167.758 79.5547L156.767 82.082L159.157 72.8935L163.741 70.4837ZM163.839 70.4249L183.353 60.1001C183.431 60.2372 183.549 60.3352 183.686 60.3939L176.496 76.42C176.182 76.3025 175.83 76.2829 175.496 76.42C174.889 76.6747 174.576 77.3212 174.732 77.9482L167.875 79.5351L163.839 70.4249ZM174.752 78.0461V78.0657L168.306 80.5343L167.914 79.6331L174.752 78.0461ZM174.791 78.1637C175.026 78.7318 175.614 79.0257 176.182 78.9474L176.887 82.7286L171.833 88.4885L168.345 80.6127L174.791 78.1637ZM176.28 78.9277C176.359 78.9082 176.437 78.8886 176.496 78.8494C176.515 78.8494 176.515 78.8298 176.535 78.8298L177.906 81.5531L176.985 82.611L176.28 78.9277ZM176.613 78.7906C176.692 78.7514 176.77 78.6927 176.829 78.6339L178.69 80.6322L177.965 81.4747L176.613 78.7906ZM176.907 78.5751C177.005 78.4771 177.083 78.3596 177.142 78.242L179.846 79.3196L178.749 80.5735L176.907 78.5751ZM179.944 79.3588L185.332 81.4943L185.743 88.1359L178.827 80.6322L179.944 79.3588ZM185.43 81.5335L190.876 83.7081L188.564 91.2314L185.821 88.273L185.43 81.5335ZM190.974 83.7277L212.838 92.4265C212.799 92.544 212.78 92.6812 212.799 92.8183L193.795 96.8738L188.643 91.2902L190.974 83.7277ZM201.338 54.8887L201.593 54.5948L212.956 75.6559L213.583 91.8779C213.544 91.8779 213.485 91.8975 213.446 91.8975L201.338 54.8887ZM214.406 78.3008L217.149 83.3947L213.896 91.8975C213.838 91.8779 213.779 91.8779 213.74 91.8583L214.406 78.3008ZM217.207 83.5122L218.246 85.4322L214.053 91.9759C214.033 91.9563 214.014 91.9563 213.994 91.9367L217.207 83.5122ZM222.771 78.34L220.283 75.4404L229.962 50.1866L237.426 53.1646C237.328 53.4585 237.328 53.7915 237.446 54.105C237.544 54.3401 237.7 54.536 237.916 54.6731L222.771 78.34ZM237.465 53.0862L230.001 50.1083L231.607 45.9156L237.74 52.6748C237.622 52.7923 237.524 52.9491 237.465 53.0862ZM229.922 50.0887L216.071 44.5638L216.267 40.7434L223.614 37.1385L231.549 45.8569L229.922 50.0887ZM223.692 37.0797L237.485 30.3206L231.588 45.7393L223.692 37.0797ZM223.633 37.0014L217.364 30.1051C217.58 29.8896 217.658 29.5761 217.58 29.2822L240.913 21.4063L237.544 30.203L223.633 37.0014ZM217.07 30.301C217.149 30.2618 217.207 30.2226 217.266 30.1834L223.516 37.0602L216.228 40.6258L216.737 30.3598C216.874 30.3598 216.972 30.3402 217.07 30.301ZM216.11 28.9688L207.02 21.6414L207.529 19.2316L216.169 28.91C216.13 28.9296 216.11 28.9492 216.11 28.9688ZM198.556 13.9027L194.559 5.14517C194.657 5.10599 194.736 5.04721 194.814 4.98843L200.731 11.6105L198.556 13.9027ZM198.497 13.9811L198.066 14.4317L195.127 12.0611L194.207 5.28231C194.305 5.26272 194.403 5.24313 194.481 5.20394L198.497 13.9811ZM195.01 11.9631L192.914 10.2586L193.795 5.26272C193.893 5.28231 194.011 5.28231 194.109 5.26272L195.01 11.9631ZM192.816 10.1998L191.307 8.98515L193.384 5.14517C193.482 5.18435 193.58 5.22353 193.697 5.24313L192.816 10.1998ZM192.796 10.3174L190.68 22.19L187.624 25.4031L185.194 20.3288L191.268 9.10271L192.796 10.3174ZM187.565 25.4618L176.437 37.1777C176.359 37.0993 176.28 37.0406 176.202 37.0014L185.155 20.4267L187.565 25.4618ZM174.87 39.2544L171.872 44.8185L162.174 33.0634C162.252 32.9851 162.311 32.9067 162.37 32.8087L174.301 37.6871C174.184 37.981 174.184 38.3336 174.321 38.6471C174.439 38.9018 174.634 39.1173 174.87 39.2544ZM156.12 37.8634L155.023 35.8259L160.881 32.8675C160.901 32.9263 160.94 32.9655 160.979 33.0047L156.12 37.8634ZM154.886 35.7867L150.693 37.9026L143.523 19.7802L145.364 18.1345L154.886 35.7867ZM150.615 37.9418L141.348 42.6242L138.879 23.9141L143.464 19.8586L150.615 37.9418ZM141.27 42.683L130.377 48.1883L132.434 29.6349L138.801 23.9924L141.27 42.683ZM130.279 48.2275L124.95 50.9311L122.266 39.6463C122.305 39.6463 122.324 39.6267 122.344 39.6267C122.775 39.4503 122.971 38.941 122.795 38.5099C122.755 38.4316 122.716 38.3728 122.677 38.314L132.336 29.7328L130.279 48.2275ZM118.289 54.3989L123.951 51.5385L125.89 63.7245L120.013 59.4339L118.289 54.3989ZM119.875 59.336L115.232 55.9466L118.21 54.438L119.875 59.336ZM124.029 51.4013L122.168 39.705L124.852 50.9899L124.029 51.4013ZM122.07 39.6659L123.931 51.4405L118.249 54.3009L114.644 43.7214L121.306 39.3132C121.502 39.5679 121.776 39.6855 122.07 39.6659ZM118.171 54.3401L115.134 55.8683L106.612 49.6577L106.573 49.0699L114.586 43.7801L118.171 54.3401ZM106.514 49.5989L106.161 49.3442L106.475 49.1483L106.514 49.5989ZM106.553 48.9719L105.573 36.9622L110.295 31.1826L114.546 43.7018L106.553 48.9719ZM106.475 49.0307L106.102 49.2854L100.44 45.1516C100.695 44.7989 100.754 44.3287 100.578 43.8977C100.499 43.7214 100.401 43.5842 100.284 43.4667L105.515 37.0602L106.475 49.0307ZM106.004 49.3442L103.007 51.323L100.009 45.563C100.147 45.4846 100.284 45.3671 100.382 45.2495L106.004 49.3442ZM102.968 51.4601L106.475 58.1997C106.259 58.3172 106.063 58.4739 105.926 58.6503L99.6371 53.6544L102.968 51.4601ZM103.046 51.4013L106.083 49.403L106.514 49.7164L107.18 57.9646C107.004 57.9842 106.808 58.0233 106.631 58.1017C106.612 58.1213 106.573 58.1213 106.553 58.1409L103.046 51.4013ZM106.631 49.7948L115.056 55.9466L109.061 58.9638C108.708 58.2976 108.003 57.9254 107.278 57.9646L106.631 49.7948ZM115.134 56.0054L119.934 59.5123L121.345 63.6462L109.257 60.3156C109.335 59.9433 109.315 59.5319 109.159 59.1401C109.139 59.1205 109.139 59.0813 109.12 59.0617L115.134 56.0054ZM120.052 59.5907L125.91 63.8617L126.086 64.9392L121.443 63.6658L120.052 59.5907ZM126.027 63.94L127.32 64.8805C127.242 64.9784 127.203 65.096 127.164 65.2135L126.204 64.9392L126.027 63.94ZM126.086 65.0372L126.184 65.6641L122.128 65.7425L121.462 63.7637L126.086 65.0372ZM126.204 65.0568L127.124 65.3115C127.105 65.429 127.085 65.527 127.085 65.6445L126.282 65.6641L126.204 65.0568ZM127.359 64.8021L125.988 63.8029L124.029 51.4797L124.871 51.0487L128.045 64.3319C127.986 64.3515 127.947 64.3711 127.888 64.3907C127.673 64.4886 127.497 64.6258 127.359 64.8021ZM124.969 51.0291L130.279 48.345L128.496 64.3123C128.378 64.3123 128.261 64.3123 128.143 64.3319L124.969 51.0291ZM130.377 48.2862L141.289 42.7614L142.445 51.5189L129.299 64.6454C129.103 64.469 128.868 64.3515 128.594 64.3123L130.377 48.2862ZM142.445 51.6364L144.737 69.0143L141.211 73.5792L129.515 66.2519C129.711 65.9188 129.75 65.4878 129.593 65.096C129.534 64.9588 129.436 64.8217 129.338 64.7041L142.445 51.6364ZM128.907 66.82C129.142 66.7221 129.338 66.5458 129.475 66.3499L141.152 73.6576L134.413 82.3563L128.868 66.82C128.888 66.82 128.907 66.82 128.907 66.82ZM141.25 73.7163L145.051 76.1065C144.933 76.3221 144.914 76.5963 145.012 76.8314C145.031 76.8902 145.051 76.9294 145.09 76.9686L135.137 84.3547L134.471 82.4739L141.25 73.7163ZM145.129 77.047C145.266 77.2037 145.462 77.3212 145.658 77.3408L145.443 80.0641L135.47 85.3539L135.157 84.4722L145.129 77.047ZM145.756 77.3408C145.874 77.3408 145.991 77.3212 146.109 77.282C146.226 77.2429 146.305 77.1645 146.383 77.0861L148.146 78.6143L145.541 79.9857L145.756 77.3408ZM148.225 78.6927L153.083 82.9441L145.168 84.7661L145.541 80.1228L148.225 78.6927ZM148.323 78.6535L159.059 72.9719L156.688 82.1212L153.221 82.9245L148.323 78.6535ZM156.649 82.2192L156.061 84.4918C155.905 84.4526 155.728 84.4722 155.572 84.5506C155.474 84.5898 155.376 84.6681 155.297 84.7465L153.299 83.0029L156.649 82.2192ZM156.747 82.1996L167.797 79.6526L168.208 80.5735L156.649 84.9816C156.551 84.7465 156.355 84.5898 156.14 84.531L156.747 82.1996ZM168.248 80.6518L171.754 88.5669L169.501 91.153L156.669 85.6086C156.728 85.4322 156.747 85.2559 156.688 85.06L168.248 80.6518ZM171.813 88.6649L173.714 92.9555L169.599 91.1726L171.813 88.6649ZM171.872 88.5865L176.907 82.8265L179.258 95.3457L173.851 93.0142L171.872 88.5865ZM178.004 81.5726L178.749 80.7106L185.743 88.2926L186.311 97.6771C186.233 97.6771 186.154 97.6967 186.076 97.7358L178.004 81.5726ZM185.841 88.3906L188.545 91.3098L186.605 97.6771C186.546 97.6575 186.487 97.6575 186.429 97.6575L185.841 88.3906ZM188.623 91.4077L193.697 96.913L187.232 98.2844C187.232 98.2452 187.212 98.2061 187.193 98.1865C187.095 97.9514 186.899 97.7946 186.683 97.7163L188.623 91.4077ZM193.776 96.9914L195.637 99.0093L187.271 98.5391C187.271 98.4803 187.271 98.4412 187.252 98.3824L193.776 96.9914ZM195.735 99.1073L198.713 102.32L196.205 103.946L187.193 98.8918C187.232 98.8134 187.252 98.735 187.271 98.6371L195.735 99.1073ZM198.771 102.262L195.852 99.1073L203.023 99.5187L198.771 102.262ZM195.774 99.0093L193.893 96.9718L212.838 92.9359C212.838 92.9751 212.858 93.0142 212.878 93.0338C212.897 93.073 212.917 93.0926 212.936 93.1318L203.18 99.4403L195.774 99.0093ZM212.956 93.2102C213.015 93.2885 213.093 93.3669 213.191 93.4257L209.606 99.793L203.317 99.4403L212.956 93.2102ZM213.269 93.4648C213.465 93.5628 213.681 93.5824 213.916 93.504L214.014 93.4648C214.151 93.4061 214.269 93.3081 214.347 93.1906L225.867 100.381C225.808 100.479 225.769 100.596 225.769 100.714L216.541 100.185H216.443L209.743 99.8126L213.269 93.4648ZM225.887 100.302L214.386 93.1122C214.445 93.0142 214.484 92.8967 214.484 92.7791L222.321 92.9751L226.141 100.067C226.043 100.126 225.945 100.204 225.887 100.302ZM222.36 92.8771L220.891 90.1734L229.981 86.9016L234.233 91.8583C233.86 92.1914 233.645 92.6616 233.625 93.171L222.36 92.8771ZM234.331 91.7995L230.099 86.8624L236.192 84.6682L235.663 91.3489C235.389 91.3293 235.095 91.3685 234.82 91.4861C234.644 91.5645 234.468 91.682 234.331 91.7995ZM236.27 84.629L241.971 82.5718L236.525 91.6036C236.29 91.4665 236.015 91.3685 235.741 91.3293L236.27 84.629ZM242.128 82.5326L252.139 78.9277L254.647 83.6494L237.25 92.3873C237.093 92.0934 236.877 91.8583 236.623 91.682L242.128 82.5326ZM263.366 79.2608L254.726 83.5906L252.218 78.8886L265.05 74.2649L263.366 79.2608ZM265.168 74.2453L294.027 63.8617L263.483 79.202L265.168 74.2453ZM254.686 83.7277L258.664 91.1922C258.409 91.3489 258.252 91.6232 258.252 91.9171L237.446 93.1318C237.426 92.9163 237.387 92.7204 237.309 92.5244C237.309 92.5049 237.289 92.5049 237.289 92.4853L254.686 83.7277ZM258.761 91.153L254.784 83.6886L263.326 79.398L259.349 91.1138C259.173 91.0551 258.977 91.0746 258.801 91.153C258.762 91.1334 258.761 91.153 258.761 91.153ZM294.419 63.1956C294.399 63.3327 294.419 63.4698 294.477 63.5874L265.207 74.1082L270.321 59.0617L294.419 63.1956ZM265.09 74.167L252.159 78.8102L248.476 71.9335L257.527 56.887L270.203 59.0617L265.09 74.167ZM287.914 7.08475L270.262 58.9833L257.606 56.8087L287.601 6.94762C287.699 6.98679 287.797 7.04557 287.914 7.08475ZM287.522 6.88883L257.508 56.7891L239.973 53.7915C240.012 53.576 239.973 53.3409 239.875 53.1058C239.816 52.9687 239.738 52.8511 239.64 52.7336L287.189 6.63415C287.287 6.7321 287.405 6.83006 287.522 6.88883ZM287.13 6.57536L239.581 52.6748C239.209 52.3221 238.66 52.2046 238.171 52.4201C238.053 52.4789 237.935 52.5377 237.837 52.6356L231.666 45.8373L237.622 30.2814L286.837 6.16394C286.915 6.30109 287.013 6.43822 287.13 6.57536ZM286.778 6.0072C286.778 6.02679 286.797 6.04639 286.797 6.06599L237.661 30.1443L241.011 21.3867L286.739 5.94843C286.739 5.96803 286.758 5.98761 286.778 6.0072ZM286.621 5.45864C286.641 5.57619 286.66 5.71333 286.699 5.83088L241.051 21.2496L245.811 8.82841L286.621 5.45864ZM240.933 21.2888L217.521 29.1843C217.521 29.1843 217.521 29.1843 217.521 29.1647C217.462 29.0079 217.344 28.8904 217.227 28.7924L228.414 10.239L245.694 8.80883L240.933 21.2888ZM273.514 -63.7395L245.753 8.75005L228.492 10.1803L273.201 -63.8766C273.299 -63.8374 273.397 -63.7787 273.514 -63.7395ZM273.122 -63.9354L228.375 10.1803L219.069 10.9443C219.049 10.7288 219.01 10.5133 218.931 10.2978C218.794 9.98433 218.598 9.72964 218.344 9.53372L273.044 -64.0138C273.063 -63.9746 273.083 -63.955 273.122 -63.9354ZM272.868 -64.1313C272.907 -64.0921 272.926 -64.0725 272.966 -64.0529L218.265 9.49454C217.971 9.29862 217.638 9.18107 217.286 9.14188L217.834 -6.23765L272.868 -64.1313ZM217.736 -6.1201L217.188 9.16148C216.933 9.16148 216.678 9.20066 216.424 9.31821C215.464 9.72964 214.993 10.8464 215.405 11.8064C215.699 12.5117 216.365 12.9427 217.07 12.9623L216.718 28.6749C216.62 28.6749 216.522 28.6945 216.424 28.7337C216.345 28.7728 216.287 28.812 216.228 28.8512L207.549 19.1141L211.447 0.501915L217.736 -6.1201ZM218.696 -33.3135L217.736 -6.27683L211.467 0.325592L218.5 -33.3331C218.559 -33.3331 218.638 -33.3135 218.696 -33.3135ZM217.893 -33.529C218.05 -33.4506 218.226 -33.3722 218.402 -33.3331L211.33 0.48233L200.789 11.5713L194.873 4.94925C195.245 4.57701 195.382 4.00885 195.167 3.49946C195.069 3.26436 194.892 3.06844 194.696 2.9313L217.893 -33.529ZM192.776 3.47987C192.639 3.79333 192.639 4.16558 192.776 4.49864C192.894 4.77293 193.09 4.98843 193.325 5.12557L191.248 8.96556L173.674 -5.19928C173.714 -5.25806 173.753 -5.31684 173.792 -5.37561L192.776 3.47987ZM173.596 -5.1601L191.189 9.02434L185.155 20.2112L173.204 -4.82704C173.361 -4.90541 173.498 -5.02296 173.596 -5.1601ZM173.106 -4.78786L185.096 20.3092L176.104 36.9622C175.908 36.8642 175.692 36.8251 175.477 36.8251L172.734 -4.6899C172.871 -4.70949 172.989 -4.74868 173.106 -4.78786ZM172.656 -4.6899L175.399 36.8251C175.281 36.8447 175.144 36.8642 175.026 36.923C174.87 37.0014 174.713 37.0993 174.595 37.2169L163.369 26.4806L172.303 -4.70949C172.421 -4.70949 172.538 -4.6899 172.656 -4.6899ZM171.617 -5.14051C171.774 -4.96418 171.97 -4.82704 172.205 -4.74867L163.291 26.4022L150.203 13.8635L171.617 -5.14051ZM150.125 13.9419L163.252 26.5002L161.782 31.6332C161.606 31.5941 161.43 31.6136 161.273 31.6724C161.214 31.692 161.155 31.7312 161.116 31.7704L148.225 15.6268L150.125 13.9419ZM136.587 0.972122L150.066 13.8635L148.166 15.5484L136.548 1.01131C136.568 1.01131 136.568 0.991714 136.587 0.972122ZM136.47 1.08967L148.088 15.6268L145.404 17.9974L136.333 1.16805C136.391 1.12886 136.43 1.10926 136.47 1.08967ZM136.274 1.20722L145.345 18.0561L143.503 19.6823L136.215 1.22681C136.235 1.22681 136.254 1.20722 136.274 1.20722ZM136.117 1.266L143.425 19.7606L138.879 23.7965L135.902 1.32478C135.98 1.30518 136.058 1.28559 136.117 1.266ZM135.823 1.34437L138.801 23.8945L132.453 29.4977L135.588 1.34437C135.666 1.34437 135.745 1.34437 135.823 1.34437ZM134.902 1.08967C135.079 1.20722 135.275 1.30518 135.49 1.32478L132.355 29.5957L122.618 38.2357C122.383 38.0006 122.011 37.9222 121.697 38.0593C121.658 38.0789 121.619 38.0985 121.58 38.1181L113.998 26.6765L134.902 1.08967ZM113.92 26.7549L121.482 38.1769C121.188 38.412 121.071 38.8038 121.227 39.1565C121.247 39.1956 121.266 39.2152 121.286 39.2544L114.644 43.643L110.373 31.1043L113.92 26.7549ZM103.732 11.5517C103.771 11.5321 103.791 11.5125 103.83 11.4929L113.861 26.6569L110.315 30.9867L103.732 11.5517ZM103.634 11.5909L110.256 31.0847L105.554 36.8251L103.516 11.6105C103.555 11.6105 103.595 11.5909 103.634 11.5909ZM103.438 11.6105L105.495 36.923L100.205 43.4079C100.029 43.2512 99.8135 43.1532 99.5784 43.1336L103.36 11.63C103.379 11.6105 103.399 11.6105 103.438 11.6105ZM103.124 11.5713C103.164 11.5909 103.203 11.5909 103.262 11.6105L99.4804 43.114C99.2649 43.0944 99.0494 43.1336 98.8535 43.212C98.5792 43.3295 98.3441 43.545 98.207 43.7801L91.2323 40.0185L103.124 11.5713ZM64.6267 25.7557L91.0951 40.0381L89.1751 44.6422L88.3327 44.6618L64.6071 25.8145C64.6071 25.7949 64.6267 25.7753 64.6267 25.7557ZM64.274 26.0888C64.3916 26.03 64.4699 25.9712 64.5483 25.8733L88.176 44.6618L71.6993 45.034L64.274 26.0888ZM78.8503 66.0364L24.2872 46.4054C24.3068 46.3271 24.3264 46.2683 24.3264 46.1899L71.6405 45.132L79.5556 65.3115C79.2225 65.4486 78.9678 65.7229 78.8503 66.0364ZM79.634 65.2723L71.7385 45.132L88.2935 44.7597L88.9204 45.2495L80.5352 65.2919C80.2609 65.1939 79.9474 65.1743 79.634 65.2723ZM80.6135 65.3311L88.9988 45.3279L94.6217 49.7948L80.8878 65.5074C80.8095 65.429 80.7115 65.3703 80.6135 65.3311ZM80.9662 65.5662L94.7 49.8536L99.4804 53.6544L81.1229 65.7425C81.0837 65.6837 81.025 65.625 80.9662 65.5662ZM81.3384 66.1735C81.3188 66.1147 81.2993 66.056 81.2797 65.9972C81.2601 65.9384 81.2209 65.8796 81.1817 65.8209L99.5588 53.6936L105.867 58.7091C105.534 59.1401 105.417 59.7082 105.534 60.2568L81.3384 66.1735ZM81.3776 66.4282C81.3776 66.3694 81.3776 66.3107 81.358 66.2715L105.554 60.3744C105.573 60.4527 105.593 60.5311 105.632 60.6095C106.044 61.5694 107.16 62.0397 108.12 61.6282C108.277 61.5694 108.395 61.4911 108.532 61.3931L112.098 65.8992L81.3776 66.4282ZM112.195 65.8992L108.591 61.3344C108.884 61.0797 109.1 60.7466 109.198 60.3939L121.345 63.7441L122.031 65.7425L112.195 65.8992ZM129.358 87.6657L112.274 65.9972L122.07 65.8209L129.475 87.5873C129.436 87.6069 129.397 87.6265 129.358 87.6657ZM129.573 87.5677L122.187 65.8405L126.223 65.7621L129.671 87.5285C129.632 87.5285 129.593 87.5481 129.573 87.5677ZM129.769 87.5285L126.321 65.7621L127.105 65.7425C127.124 65.86 127.144 65.9972 127.203 66.1147C127.457 66.7417 128.163 67.0551 128.809 66.8592L134.373 82.4543L130.337 87.6657C130.161 87.5481 129.965 87.5089 129.769 87.5285ZM130.396 87.7245L134.393 82.5522L135.059 84.4135L130.494 87.8224C130.455 87.7832 130.416 87.744 130.396 87.7245ZM130.533 87.8812L135.079 84.4918L135.392 85.3539L130.553 87.9204C130.553 87.9204 130.553 87.9008 130.533 87.8812ZM130.631 88.1163C130.631 88.0967 130.612 88.0575 130.612 88.0379L135.431 85.491L135.941 86.9016L130.631 88.1163ZM136.039 86.8624L135.529 85.4126L145.462 80.162L145.09 84.7857L136.039 86.8624ZM143.092 106.67L136.058 86.9604L145.07 84.8837L143.366 106.631C143.268 106.611 143.19 106.631 143.092 106.67ZM143.464 106.631L145.188 84.8641L153.201 83.0224L155.258 84.8053C155.082 85.0404 155.023 85.3539 155.141 85.6477C155.219 85.8045 155.317 85.9416 155.474 86.0396L143.738 106.728C143.64 106.67 143.562 106.65 143.464 106.631ZM144.091 107.101C144.032 106.964 143.934 106.846 143.817 106.768L155.532 86.0788C155.748 86.1767 156.003 86.1963 156.238 86.0983C156.297 86.0788 156.336 86.0592 156.375 86.02L164.055 96.1489C163.8 96.384 163.722 96.7563 163.859 97.0893C163.859 97.1089 163.879 97.1089 163.879 97.1285L144.091 107.101ZM164.29 95.9726C164.231 95.9922 164.172 96.0314 164.114 96.0705L156.434 85.9612C156.512 85.8828 156.59 85.8045 156.649 85.6869L169.443 91.2118L165.172 96.1097C164.937 95.9138 164.603 95.855 164.29 95.9726ZM165.465 96.815C165.465 96.6975 165.465 96.5603 165.407 96.4232C165.368 96.3252 165.309 96.2469 165.25 96.1685L169.541 91.251L173.772 93.073L175.771 97.5987L165.465 96.815ZM173.91 93.1514L179.278 95.4632L179.748 97.9318L175.908 97.6379L173.91 93.1514ZM182.256 112.018L175.927 97.7358L179.748 98.0297L182.354 111.999C182.334 111.999 182.295 111.999 182.256 112.018ZM182.452 111.979L179.846 98.0493L185.567 98.4999C185.567 98.6175 185.586 98.735 185.625 98.8526C185.802 99.2836 186.311 99.4795 186.742 99.3032C186.899 99.2248 187.036 99.1269 187.134 98.9701L196.107 104.005L183.255 112.332C183.059 112.057 182.765 111.94 182.452 111.979ZM183.372 112.606C183.353 112.567 183.353 112.528 183.333 112.469C183.314 112.43 183.294 112.41 183.294 112.371L196.205 104.025L203.454 108.1C203.336 108.335 203.317 108.609 203.356 108.884L183.372 112.606ZM204.14 107.453C204.003 107.512 203.885 107.591 203.767 107.688L198.83 102.34L203.18 99.5383L209.547 99.8909L205.276 107.512C204.943 107.316 204.512 107.277 204.14 107.453ZM217.913 103.868L217.815 103.907L205.883 108.217C205.883 108.198 205.864 108.159 205.864 108.139C205.766 107.884 205.589 107.688 205.374 107.551L209.684 99.8909L216.482 100.283H216.58L225.749 100.812C225.749 100.89 225.769 100.968 225.789 101.027L217.913 103.868ZM226.259 100.008C226.239 100.008 226.239 100.028 226.22 100.028L222.419 92.9751L233.645 93.2689C233.645 93.504 233.684 93.7587 233.802 93.9938C233.88 94.1702 233.978 94.3269 234.095 94.4836L227.219 100.244C226.984 99.9693 226.592 99.8518 226.259 100.008ZM227.415 100.753C227.415 100.655 227.395 100.557 227.356 100.459C227.336 100.4 227.297 100.342 227.278 100.302L234.154 94.5424C234.605 95.0322 235.271 95.2477 235.937 95.1301L236.035 95.1105C236.133 95.091 236.211 95.0518 236.309 95.0322C236.368 95.0126 236.427 94.9734 236.466 94.9538L236.544 94.9146C237.132 94.562 237.485 93.9155 237.465 93.2493L258.272 92.0347C258.272 92.113 258.291 92.1914 258.33 92.2697C258.409 92.4657 258.546 92.6028 258.722 92.6812L258.801 92.7204C258.957 92.7791 259.134 92.7987 259.31 92.7596L261.975 101.556L227.415 100.753ZM266.089 115.231C265.854 115.329 265.697 115.506 265.619 115.721L242.206 106.728L227.375 101.047C227.395 100.988 227.415 100.929 227.415 100.851L261.994 101.635L266.108 115.231H266.089ZM267.245 115.819C267.225 115.78 267.225 115.721 267.206 115.682C267.049 115.29 266.618 115.094 266.226 115.192L262.112 101.635L317.772 102.888L318.223 102.967C318.223 102.986 318.223 103.006 318.223 103.045L267.245 115.819Z" fill="url(#paint1_linear_1_13389)"/>
<defs>
<linearGradient id="paint0_linear_1_13389" x1="0.0125002" y1="24.6722" x2="334.5" y2="24.6722" gradientUnits="userSpaceOnUse">
<stop stop-color="#2BC8EB"/>
<stop offset="1" stop-color="#2F2BEB"/>
</linearGradient>
<linearGradient id="paint1_linear_1_13389" x1="22.6272" y1="24.7023" x2="319.899" y2="24.7023" gradientUnits="userSpaceOnUse">
<stop stop-color="#2BC8EB"/>
<stop offset="1" stop-color="#2F2BEB"/>
</linearGradient>
</defs>
</svg>
