<svg width="16" height="15" viewBox="0 0 16 15" fill="none" xmlns="http://www.w3.org/2000/svg">
<path d="M8 0.75C10.4883 0.75 12.7852 2.08984 14.043 4.25C15.3008 6.4375 15.3008 9.08984 14.043 11.25C12.7852 13.4375 10.4883 14.75 8 14.75C5.48438 14.75 3.1875 13.4375 1.92969 11.25C0.671875 9.08984 0.671875 6.4375 1.92969 4.25C3.1875 2.08984 5.48438 0.75 8 0.75ZM7.34375 4.03125V7.75C7.34375 7.96875 7.45312 8.1875 7.61719 8.29688L10.2422 10.0469C10.543 10.2656 10.9531 10.1836 11.1719 9.88281C11.3633 9.58203 11.2812 9.17188 10.9805 8.95312L8.65625 7.42188V4.03125C8.65625 3.67578 8.35547 3.375 8 3.375C7.61719 3.375 7.34375 3.67578 7.34375 4.03125Z" fill="#616669"/>
</svg>
