<svg width="60" height="60" viewBox="0 0 60 60" fill="none" xmlns="http://www.w3.org/2000/svg">
<g clip-path="url(#clip0_1_13016)">
<path d="M53.8691 18.8043L44.8854 1.40191C43.9067 -0.497379 41.2558 -0.421648 40.2887 1.35534L35.6512 9.89633L31.404 12.0869C30.1748 12.7219 29.5629 14.0619 29.7786 15.3552H6.53849C4.03335 15.3552 2 17.3885 2 19.8878V44.3047C2 46.7808 4.02171 48.8432 6.53849 48.8432H18.9304L20.6898 53.6846H18.6333C16.8913 53.6846 15.4757 55.1004 15.4757 56.8423C15.4757 58.5844 16.8914 60 18.6333 60H35.5171C37.2591 60 38.6748 58.5843 38.6748 56.8423C38.6748 55.1004 37.2591 53.6846 35.5171 53.6846H33.4605L35.22 48.8432H47.6178C50.1521 48.8432 52.1504 46.7633 52.1504 44.3047V34.3364C52.1504 33.8587 51.7601 33.4625 51.2765 33.4625C50.793 33.4625 50.4027 33.8587 50.4027 34.3364V39.2186H3.74783V19.888C3.74783 18.3557 5.00046 17.1032 6.53849 17.1032H30.4893L33.1518 22.265C33.9383 23.7914 35.8143 24.3915 37.3466 23.6051L41.5938 21.4087L50.4028 22.4807V29.8564C50.4028 30.34 50.7931 30.7303 51.2766 30.7303C51.7602 30.7303 52.1505 30.3399 52.1505 29.8564V22.5273C53.7934 22.1484 54.6499 20.3133 53.8691 18.8043ZM35.5171 55.4326C36.2979 55.4326 36.927 56.0676 36.927 56.8424C36.927 57.6232 36.2977 58.2524 35.5171 58.2524H18.6333C17.8585 58.2524 17.2234 57.6232 17.2234 56.8424C17.2234 56.0676 17.8584 55.4326 18.6333 55.4326H35.5171ZM50.4027 40.9665V44.3048C50.4027 45.7788 49.1908 47.0896 47.612 47.0896H6.53849C5.00046 47.0896 3.74783 45.8429 3.74783 44.3048V40.9665H50.4027ZM51.4573 20.8434L41.9957 19.7015L37.2825 10.5605L41.8269 2.18851C42.1647 1.56514 43.0271 1.6117 43.33 2.20603L52.3137 19.6084C52.634 20.2201 52.1272 20.9308 51.4573 20.8434Z" fill="white"/>
<path d="M34.7388 44.9042H36.3985C36.8809 44.9042 37.2723 44.5128 37.2723 44.0303C37.2723 43.5479 36.8809 43.1565 36.3985 43.1565H34.7388C34.2564 43.1565 33.865 43.5479 33.865 44.0303C33.8649 44.5127 34.2564 44.9042 34.7388 44.9042Z" fill="white"/>
<path d="M40.0931 44.9042H41.7527C42.2352 44.9042 42.6266 44.5128 42.6266 44.0303C42.6266 43.5479 42.2352 43.1565 41.7527 43.1565H40.0931C39.6106 43.1565 39.2192 43.5479 39.2192 44.0303C39.2191 44.5127 39.6106 44.9042 40.0931 44.9042Z" fill="white"/>
<path d="M45.4468 44.9042H47.1065C47.5889 44.9042 47.9803 44.5128 47.9803 44.0303C47.9803 43.5479 47.5889 43.1565 47.1065 43.1565H45.4468C44.9644 43.1565 44.573 43.5479 44.573 44.0303C44.573 44.5127 44.9644 44.9042 45.4468 44.9042Z" fill="white"/>
<path d="M54.6617 7.37665C54.8831 7.80583 55.4102 7.97374 55.8388 7.75266L57.4631 6.91458C57.8921 6.69326 58.0606 6.16638 57.8391 5.73744C57.6178 5.30849 57.0899 5.13999 56.662 5.36142L55.0377 6.19951C54.6087 6.4207 54.4403 6.94758 54.6617 7.37665Z" fill="white"/>
<path d="M51.5181 1.88962L50.9623 3.6312C50.8155 4.09087 51.0692 4.58247 51.529 4.72925C51.9792 4.87447 52.4784 4.62951 52.6271 4.16252L53.1829 2.42094C53.3296 1.96127 53.0759 1.46967 52.6161 1.32289C52.1553 1.17335 51.6643 1.43043 51.5181 1.88962Z" fill="white"/>
<path d="M56.1035 10.8977C55.6427 10.748 55.1517 11.0046 55.0055 11.4644C54.8587 11.9241 55.1124 12.4157 55.5722 12.5625L57.3138 13.1183C57.764 13.2635 58.2632 13.0185 58.4119 12.5515C58.5586 12.0919 58.3049 11.6003 57.8451 11.4535L56.1035 10.8977Z" fill="white"/>
<path d="M19.3208 33.3344C19.3208 35.3794 16.3787 36.1076 13.8618 36.1076C11.6537 36.1076 8.39697 35.5191 8.39697 33.3344C8.39697 30.3223 10.8439 27.8696 13.8618 27.8696C16.8739 27.8696 19.3208 30.3223 19.3208 33.3344Z" fill="white"/>
<path d="M17.1243 23.6807C17.1243 25.481 15.662 26.949 13.8617 26.949C12.0557 26.949 10.5933 25.4808 10.5933 23.6807C10.5933 21.8804 12.0556 20.4124 13.8617 20.4124C15.662 20.4124 17.1243 21.8805 17.1243 23.6807Z" fill="white"/>
<path d="M24.6502 27.5097H40.0932C40.5757 27.5097 40.9671 27.1183 40.9671 26.6358C40.9671 26.1533 40.5756 25.762 40.0932 25.762H24.6502C24.1677 25.762 23.7764 26.1533 23.7764 26.6358C23.7764 27.1183 24.1677 27.5097 24.6502 27.5097Z" fill="white"/>
<path d="M46.71 25.762H44.0599C43.5774 25.762 43.186 26.1533 43.186 26.6358C43.186 27.1183 43.5774 27.5097 44.0599 27.5097H46.71C47.1925 27.5097 47.5839 27.1183 47.5839 26.6358C47.5839 26.1533 47.1925 25.762 46.71 25.762Z" fill="white"/>
<path d="M24.6502 36.0502H40.0932C40.5757 36.0502 40.9671 35.6588 40.9671 35.1763C40.9671 34.6939 40.5756 34.3025 40.0932 34.3025H24.6502C24.1677 34.3025 23.7764 34.6939 23.7764 35.1763C23.7764 35.6588 24.1677 36.0502 24.6502 36.0502Z" fill="white"/>
<path d="M46.71 34.3025H44.0599C43.5774 34.3025 43.186 34.6939 43.186 35.1763C43.186 35.6588 43.5774 36.0502 44.0599 36.0502H46.71C47.1925 36.0502 47.5839 35.6588 47.5839 35.1763C47.5839 34.6939 47.1925 34.3025 46.71 34.3025Z" fill="white"/>
<path d="M46.7102 30.0317H31.2672C30.7847 30.0317 30.3933 30.4231 30.3933 30.9056C30.3933 31.3881 30.7847 31.7794 31.2672 31.7794H46.7102C47.1926 31.7794 47.584 31.3881 47.584 30.9056C47.584 30.4231 47.1926 30.0317 46.7102 30.0317Z" fill="white"/>
<path d="M24.6502 31.7797H27.3003C27.7828 31.7797 28.1742 31.3883 28.1742 30.9058C28.1742 30.4234 27.7828 30.032 27.3003 30.032H24.6502C24.1677 30.032 23.7764 30.4234 23.7764 30.9058C23.7764 31.3883 24.1677 31.7797 24.6502 31.7797Z" fill="white"/>
</g>
<defs>
<clipPath id="clip0_1_13016">
<rect width="60" height="60" fill="white"/>
</clipPath>
</defs>
</svg>
