<svg width="60" height="60" viewBox="0 0 60 60" fill="none" xmlns="http://www.w3.org/2000/svg">
<g clip-path="url(#clip0_1_13054)">
<path d="M59.0332 29.0316H43.7051C43.1707 29.0316 42.7374 29.465 42.7374 29.9994C42.7374 31.1382 42.5863 32.2422 42.3047 33.2933C41.18 31.622 39.7237 30.1896 38.0132 29.0887C36.8654 28.3501 35.629 27.7806 34.3382 27.3863C36.5256 25.9626 37.9759 23.4978 37.9759 20.6989C37.9759 16.3011 34.3982 12.7235 30.0006 12.7235C25.603 12.7235 22.0252 16.3011 22.0252 20.6989C22.0252 23.4976 23.4756 25.9626 25.6629 27.3863C24.372 27.7806 23.1356 28.3501 21.9878 29.0887C20.2773 30.1897 18.8209 31.622 17.6963 33.2933C17.4147 32.2422 17.2636 31.1382 17.2636 29.9995C17.2636 29.4651 16.8303 29.0318 16.2958 29.0318H0.967758C0.433313 29.0318 0 29.4651 0 29.9995V33.9286C0 34.329 0.246536 34.6879 0.620091 34.8318L4.96 36.5024C5.56073 38.821 6.47962 41.0376 7.69706 43.105L5.80824 47.3577C5.64566 47.7235 5.72525 48.1516 6.00832 48.4348L11.5651 53.9914C11.8483 54.2746 12.2766 54.3539 12.6422 54.1915L16.8963 52.3021C18.9639 53.5195 21.1799 54.4383 23.497 55.0387L25.168 59.3799C25.3117 59.7535 25.6707 60 26.0711 60H33.9293C34.3298 60 34.6887 59.7535 34.8325 59.3799L36.503 55.0399C38.8215 54.4393 41.0381 53.5203 43.1057 52.3027L47.3584 54.1915C47.7242 54.3539 48.1525 54.2745 48.4355 53.9914L53.9922 48.4347C54.2752 48.1515 54.3548 47.7234 54.1924 47.3576L52.3029 43.1033C53.5205 41.0355 54.4393 38.8197 55.0395 36.5027L59.3806 34.8318C59.7543 34.6881 60.0007 34.329 60.0007 33.9286V29.9996C60.001 29.465 59.5677 29.0316 59.0332 29.0316ZM23.9607 20.6988C23.9607 17.3683 26.6702 14.6589 30.0006 14.6589C33.3309 14.6589 36.0404 17.3682 36.0404 20.6988C36.0404 24.0283 33.3325 26.7371 30.0034 26.7385C30.0024 26.7385 30.0016 26.7385 30.0006 26.7385C29.9998 26.7385 29.9988 26.7385 29.9979 26.7385C26.6687 26.7371 23.9607 24.0283 23.9607 20.6988ZM29.9978 28.6742H30.0006H30.0033C34.7887 28.6753 39.2255 31.3816 41.4342 35.6073C40.7898 36.9158 39.9274 38.0981 38.8945 39.107L21.1066 39.1071C20.0736 38.0982 19.2112 36.9158 18.5668 35.6072C20.7753 31.3815 25.2123 28.6751 29.9978 28.6742ZM36.3417 41.0425C34.4733 42.1195 32.3076 42.7362 30.0005 42.7362C27.6935 42.7362 25.5278 42.1196 23.6595 41.0426L36.3417 41.0425ZM58.0655 33.2639L53.8743 34.8771C53.5765 34.9917 53.3544 35.2458 53.2805 35.5563C52.6943 38.0196 51.7218 40.3653 50.39 42.5282C50.2227 42.7999 50.2001 43.1367 50.3296 43.4284L52.1538 47.5358L47.5369 52.1527L43.431 50.3291C43.1394 50.1994 42.8025 50.2221 42.5308 50.3896C40.3684 51.7213 38.0221 52.694 35.557 53.2805C35.2466 53.3543 34.9924 53.5764 34.8779 53.8742L33.2651 58.0642H26.7358L25.1226 53.8731C25.0081 53.5753 24.754 53.3532 24.4435 53.2794C21.98 52.6931 19.6342 51.7206 17.4715 50.3887C17.1996 50.2212 16.8628 50.1987 16.5713 50.3284L12.4639 52.1526L7.84682 47.5358L9.67044 43.4298C9.8 43.1382 9.77738 42.8014 9.60995 42.5296C8.27832 40.3675 7.30572 38.0211 6.71902 35.5559C6.64511 35.2455 6.42301 34.9913 6.12518 34.8768L1.93552 33.264V30.9672H15.3596C15.8592 38.6084 22.235 44.6717 30.0004 44.6717C37.7658 44.6717 44.1416 38.6084 44.6412 30.9672H58.0655V33.2639ZM24.2902 5.75562L26.5204 7.54815L25.7698 10.3092C25.6363 10.8003 25.816 11.3108 26.2278 11.6101C26.442 11.7656 26.6912 11.8439 26.941 11.8439C27.1714 11.8439 27.4022 11.7774 27.6065 11.6437L30.0005 10.0767L32.3946 11.6438C32.8205 11.9224 33.3617 11.9092 33.7733 11.6101C34.1849 11.3109 34.3647 10.8004 34.2313 10.3093L33.4805 7.54827L35.7107 5.75586C36.1075 5.43698 36.2622 4.91826 36.105 4.43414C35.9476 3.9499 35.5176 3.62123 35.0094 3.59655L32.1514 3.45719L31.1358 0.782311C30.9553 0.307021 30.5098 0 30.0006 0C29.4914 0 29.0459 0.307021 28.8654 0.782311L27.8498 3.45719L24.9921 3.59655C24.4837 3.62123 24.0536 3.9499 23.8962 4.43414C23.7389 4.91814 23.8936 5.43686 24.2902 5.75562ZM28.4152 5.3673C28.8976 5.34408 29.3202 5.03718 29.4916 4.5856L30.0005 3.24513L30.5094 4.58548C30.6808 5.03706 31.1034 5.34408 31.5856 5.3673L33.0176 5.4371L31.9002 6.3353C31.524 6.63749 31.3625 7.13382 31.489 7.6004L31.8651 8.98394L30.6659 8.19896C30.2618 7.93416 29.7394 7.93404 29.3354 8.19872L28.1357 8.98394L28.5118 7.6004C28.6386 7.13431 28.4772 6.63773 28.1009 6.33542L26.9834 5.4371L28.4152 5.3673ZM39.0315 12.7388L41.2617 14.5314L40.5111 17.2924C40.3775 17.7835 40.5573 18.294 40.969 18.5933C41.1833 18.7488 41.4325 18.8271 41.6823 18.8271C41.9126 18.8271 42.1434 18.7606 42.3477 18.6269L44.7417 17.0599L47.1358 18.627C47.5618 18.9056 48.103 18.8924 48.5145 18.5933C48.9262 18.2941 49.106 17.7836 48.9725 17.2925L48.2219 14.5315L50.452 12.7391C50.8488 12.4202 51.0035 11.9015 50.8462 11.4174C50.6888 10.9331 50.2588 10.6044 49.7506 10.5798L46.8927 10.4404L45.877 7.76553C45.6965 7.29024 45.251 6.98322 44.7419 6.98322C44.2327 6.98334 43.7869 7.29036 43.6067 7.76553L42.591 10.4403L39.7332 10.5796C39.2249 10.6042 38.7947 10.933 38.6374 11.4171C38.4801 11.9011 38.6348 12.42 39.0315 12.7388ZM43.1564 12.3505C43.6389 12.3273 44.0614 12.0204 44.2328 11.5688L44.7417 10.2284L45.2507 11.5687C45.4221 12.0203 45.8446 12.3273 46.3268 12.3505L47.7588 12.4203L46.6414 13.3185C46.2649 13.6209 46.1035 14.1175 46.2303 14.5835L46.6064 15.9672L45.4072 15.1822C45.205 15.0497 44.9734 14.9834 44.7417 14.9834C44.5102 14.9834 44.2787 15.0496 44.0768 15.1819L42.8771 15.9672L43.2532 14.5836C43.38 14.1175 43.2186 13.6209 42.8423 13.3186L41.7247 12.4203L43.1564 12.3505ZM9.42705 12.739L11.6572 14.5314L10.9065 17.2927C10.7731 17.7839 10.953 18.2944 11.3649 18.5935C11.5791 18.7491 11.8282 18.8272 12.078 18.8272C12.3083 18.8272 12.5391 18.7607 12.7433 18.627L15.1374 17.06L17.5314 18.627C17.9572 18.9057 18.4984 18.8924 18.9101 18.5935C19.3219 18.2942 19.5016 17.7838 19.3681 17.2926L18.6174 14.5315L20.8474 12.7392C21.2442 12.4203 21.3989 11.9016 21.2417 11.4175C21.0843 10.9332 20.6542 10.6046 20.1461 10.5799L17.2881 10.4405L16.2726 7.76589C16.0922 7.29048 15.6467 6.98346 15.1375 6.98334C14.6284 6.98334 14.1827 7.29036 14.0022 7.76565L12.9866 10.4405L10.1288 10.5798C9.62036 10.6043 9.19019 10.9331 9.03293 11.4172C8.87567 11.9014 9.03039 12.4202 9.42705 12.739ZM13.552 12.3506C14.0344 12.3274 14.457 12.0204 14.6284 11.5688L15.1373 10.2285L15.6463 11.5692C15.8179 12.0205 16.2404 12.3274 16.7222 12.3506L18.1543 12.4204L17.036 13.3192C16.6603 13.6219 16.4992 14.1183 16.6258 14.5836L17.0019 15.9673L15.8028 15.1823C15.6006 15.0498 15.3688 14.9835 15.1372 14.9835C14.9056 14.9835 14.6741 15.0497 14.4723 15.1821L13.2727 15.9673L13.6488 14.5837C13.7754 14.118 13.6143 13.6217 13.2378 13.3186L12.1204 12.4204L13.552 12.3506Z" fill="white"/>
</g>
<defs>
<clipPath id="clip0_1_13054">
<rect width="60" height="60" fill="white"/>
</clipPath>
</defs>
</svg>
