<svg width="40" height="40" viewBox="0 0 40 40" fill="none" xmlns="http://www.w3.org/2000/svg">
<g clip-path="url(#clip0_1_12941)">
<path d="M25.0667 22.8668C24.6222 22.4223 23.9111 22.4223 23.5111 22.8668L20.2222 26.1557C19.7778 26.6001 19.7778 27.3112 20.2222 27.7112C20.6667 28.1557 21.3778 28.1557 21.7778 27.7112L23.2 26.289V36.5112C23.2 37.1334 23.6889 37.6223 24.3111 37.6223C24.9334 37.6223 25.4222 37.1334 25.4222 36.5112V26.289L26.8445 27.7112C27.0667 27.9334 27.3334 28.0223 27.6445 28.0223C27.9556 28.0223 28.2222 27.9334 28.4445 27.7112C28.8889 27.2668 28.8889 26.5557 28.4445 26.1557L25.0667 22.8668Z" fill="white"/>
<path d="M18.2222 32.4668L16.7999 33.889V23.6668C16.7999 23.0446 16.311 22.5557 15.6888 22.5557C15.0666 22.5557 14.5777 23.0446 14.5777 23.6668V33.889L13.1555 32.4668C12.711 32.0223 11.9999 32.0223 11.5999 32.4668C11.1555 32.9112 11.1555 33.6223 11.5999 34.0223L14.8888 37.3112C15.111 37.5334 15.3777 37.6223 15.6888 37.6223C15.9999 37.6223 16.2666 37.5334 16.4888 37.3112L19.7777 34.0223C20.2222 33.5779 20.2222 32.8668 19.7777 32.4668C19.3777 32.0223 18.6666 32.0223 18.2222 32.4668Z" fill="white"/>
<path d="M34.7111 13.2667C34.7111 13.1333 34.7111 12.9556 34.7111 12.8222C34.7111 7.4 30.3111 3 24.8889 3C21.3778 3 18.1333 4.91111 16.4 7.93333C15.9111 7.84444 15.4222 7.8 14.9333 7.8C11.5111 7.8 8.48889 9.88889 7.24444 13C7.2 13 7.15556 13 7.11111 13C3.2 13 0 16.2 0 20.1556C0 24.1111 3.2 27.3111 7.15556 27.3111H8.4C9.02222 27.3111 9.51111 26.8222 9.51111 26.2C9.51111 25.5778 9.02222 25.0889 8.4 25.0889H7.15556C4.44444 25.0889 2.22222 22.8667 2.22222 20.1556C2.22222 17.4444 4.44444 15.2222 7.15556 15.2222C7.42222 15.2222 7.64444 15.2222 7.86667 15.2667C8.44444 15.3556 8.97778 15 9.11111 14.4667C9.82222 11.8444 12.2222 10.0222 14.9333 10.0222C15.5556 10.0222 16.1333 10.1111 16.6667 10.2889C17.2 10.4667 17.7778 10.2 18 9.66667C19.2444 6.95556 21.9556 5.22222 24.8889 5.22222C29.0667 5.22222 32.4889 8.64444 32.4889 12.8222C32.4889 13.2222 32.4444 13.6222 32.4 13.9778C32.3556 14.2889 32.4444 14.6 32.6222 14.8222C32.8 15.0444 33.0667 15.2222 33.3778 15.2667C35.8667 15.5333 37.7778 17.6222 37.7778 20.1556C37.7778 22.8667 35.5556 25.0889 32.8444 25.0889H31.6C30.9778 25.0889 30.4889 25.5778 30.4889 26.2C30.4889 26.8222 30.9778 27.3111 31.6 27.3111H32.8444C36.8 27.3111 40 24.1111 40 20.1556C40 16.8667 37.7778 14.0667 34.7111 13.2667Z" fill="white"/>
</g>
<defs>
<clipPath id="clip0_1_12941">
<rect width="40" height="40" fill="white"/>
</clipPath>
</defs>
</svg>
