<svg width="40" height="40" viewBox="0 0 40 40" fill="none" xmlns="http://www.w3.org/2000/svg">
<path d="M19.8526 28.4001C19.9483 28.4319 20.0517 28.4319 20.1474 28.4001C24.8221 26.8518 27.624 24.323 28.966 20.4417C30.1817 16.9247 30.1558 12.4268 30.1351 8.81266C30.1345 8.70031 30.0935 8.59192 30.0197 8.50723C29.9458 8.42254 29.844 8.36719 29.7328 8.35126C26.2862 7.85602 23.0299 6.46516 20.2891 4.31759C20.2066 4.25296 20.1048 4.21785 20 4.21785C19.8952 4.21785 19.7934 4.25296 19.7109 4.31759C16.9702 6.4653 13.7138 7.85628 10.2672 8.35157C10.156 8.3675 10.0542 8.42286 9.98034 8.50754C9.90651 8.59223 9.86555 8.70062 9.86492 8.81298C9.84422 12.4271 9.81805 16.9253 11.0341 20.442C12.3757 24.3229 15.1779 26.8516 19.8526 28.4001ZM10.8002 9.21798C14.1413 8.67128 17.2989 7.31899 20 5.27805C22.7011 7.31898 25.8587 8.67126 29.1998 9.21798C29.2181 12.6883 29.1998 16.8954 28.0799 20.1355C26.8555 23.6774 24.2859 26.0082 20 27.4609C15.7141 26.0083 13.1445 23.6775 11.9202 20.1356C10.8002 16.8956 10.7819 12.6884 10.8002 9.21798ZM39.5312 32.2599H38.809V11.1797C38.8085 10.7442 38.6353 10.3267 38.3273 10.0188C38.0194 9.71087 37.6019 9.53767 37.1664 9.53719H31.8859C31.8859 9.16589 31.8854 8.79287 31.8844 8.41813C31.8835 8.02464 31.8829 7.62938 31.8827 7.23235C31.8827 7.113 31.8372 6.99816 31.7554 6.91123C31.6736 6.8243 31.5618 6.77184 31.4427 6.76454C27.3039 6.5059 23.3781 4.83983 20.3166 2.04282C20.2302 1.96376 20.1173 1.91992 20.0002 1.91992C19.883 1.91992 19.7702 1.96376 19.6838 2.04282C16.6221 4.8398 12.6962 6.50578 8.55734 6.7643C8.43822 6.7716 8.32637 6.82407 8.24459 6.911C8.16282 6.99792 8.11728 7.11277 8.11727 7.23212C8.11727 7.62904 8.11672 8.02433 8.11562 8.41798C8.11484 8.79298 8.11435 9.16597 8.11414 9.53696H2.83359C2.39807 9.53744 1.98053 9.71067 1.67259 10.0186C1.36464 10.3266 1.19145 10.7442 1.19102 11.1797V32.2602H0.46875C0.34443 32.2602 0.225201 32.3095 0.137294 32.3975C0.049386 32.4854 0 32.6046 0 32.7289L0 35.1703C0.000868473 35.9419 0.307752 36.6816 0.853324 37.2271C1.3989 37.7727 2.1386 38.0796 2.91016 38.0805H37.0898C37.8614 38.0796 38.6012 37.7727 39.1468 37.2271C39.6923 36.6814 39.9992 35.9417 40 35.1701V32.7287C40 32.6044 39.9506 32.4851 39.8627 32.3972C39.7748 32.3093 39.6556 32.2599 39.5312 32.2599ZM37.8715 11.1797V32.2602H36.7309V12.084C36.7309 11.9597 36.6815 11.8404 36.5936 11.7525C36.5057 11.6646 36.3864 11.6152 36.2621 11.6152H31.8738C31.879 11.2373 31.8824 10.8571 31.8841 10.4746H37.1664C37.3533 10.4748 37.5326 10.5491 37.6648 10.6813C37.797 10.8135 37.8713 10.9928 37.8715 11.1797ZM4.2068 32.2599V12.5527H8.1443C8.22719 15.7816 8.52469 18.8151 9.5518 21.4984C10.3409 23.5604 11.492 25.2452 13.0699 26.6488C14.8112 28.1977 17.0329 29.3738 19.8617 30.2445C19.9516 30.2722 20.0477 30.2722 20.1375 30.2445C22.9663 29.3738 25.1879 28.1976 26.9293 26.6488C28.5074 25.2452 29.6581 23.5604 30.4473 21.4984C31.4745 18.815 31.772 15.7816 31.8549 12.5531H35.7928V32.2599H4.2068ZM26.6327 33.1974L26.1045 34.8233H13.8956L13.3672 33.1974H26.6327ZM9.05312 8.41993C9.0537 8.16993 9.05414 7.91923 9.05445 7.66782C13.1045 7.3204 16.9384 5.69154 20 3.01759C23.0615 5.6915 26.8954 7.32037 30.9453 7.66782C30.9453 7.91923 30.9458 8.1699 30.9466 8.41985C30.9661 17.7743 30.983 25.8583 19.9998 29.3056C9.0168 25.8584 9.03359 17.7743 9.05312 8.41993ZM2.12852 11.1797C2.12872 10.9928 2.20308 10.8136 2.33526 10.6814C2.46745 10.5492 2.64667 10.4749 2.83359 10.4747H8.11594C8.11766 10.8572 8.12107 11.2374 8.12617 11.6153H3.73805C3.61373 11.6153 3.4945 11.6647 3.40659 11.7526C3.31868 11.8405 3.2693 11.9597 3.2693 12.0841V32.2599H2.12867L2.12852 11.1797ZM39.0625 35.1701C39.0619 35.6931 38.8539 36.1945 38.4841 36.5643C38.1143 36.9341 37.6128 37.1422 37.0898 37.1427H2.91016C2.38715 37.1422 1.88574 36.9341 1.51592 36.5643C1.1461 36.1945 0.938079 35.6931 0.9375 35.1701V33.1974H12.3816L13.1092 35.437C13.1398 35.5311 13.1994 35.6131 13.2795 35.6713C13.3596 35.7295 13.456 35.7608 13.555 35.7608H26.4453C26.5443 35.7608 26.6407 35.7294 26.7208 35.6713C26.8009 35.6131 26.8605 35.531 26.8911 35.4369L27.6187 33.1974H39.0625V35.1701ZM4.05117 35.1701C4.05139 35.2315 4.03948 35.2924 4.01612 35.3493C3.99276 35.4061 3.95841 35.4578 3.91505 35.5013C3.87169 35.5449 3.82016 35.5794 3.76341 35.603C3.70667 35.6266 3.64583 35.6388 3.58438 35.6388H3.58047C3.48784 35.6384 3.39741 35.6106 3.32058 35.5589C3.24375 35.5071 3.18397 35.4338 3.1488 35.3481C3.11362 35.2624 3.10461 35.1682 3.12292 35.0774C3.14123 34.9866 3.18602 34.9033 3.25166 34.8379C3.31729 34.7726 3.40081 34.7281 3.49169 34.7102C3.58256 34.6923 3.67671 34.7017 3.76225 34.7372C3.84779 34.7727 3.92089 34.8328 3.97231 34.9099C4.02373 34.9869 4.05117 35.0775 4.05117 35.1701ZM5.44383 35.1701C5.44404 35.2315 5.43213 35.2924 5.40878 35.3493C5.38543 35.4061 5.35109 35.4578 5.30773 35.5013C5.26438 35.5448 5.21286 35.5794 5.15612 35.603C5.09939 35.6266 5.03856 35.6388 4.97711 35.6388H4.97312C4.8805 35.6384 4.79006 35.6106 4.71324 35.5589C4.63641 35.5071 4.57663 35.4338 4.54145 35.3481C4.50627 35.2624 4.49727 35.1682 4.51557 35.0774C4.53388 34.9866 4.57868 34.9033 4.64431 34.8379C4.70994 34.7726 4.79347 34.7281 4.88435 34.7102C4.97522 34.6923 5.06937 34.7017 5.15491 34.7372C5.24045 34.7727 5.31354 34.8328 5.36496 34.9099C5.41638 34.9869 5.44383 35.0775 5.44383 35.1701ZM6.83648 35.1701C6.8367 35.2315 6.82479 35.2924 6.80144 35.3493C6.77808 35.4061 6.74375 35.4578 6.70039 35.5013C6.65704 35.5448 6.60551 35.5794 6.54878 35.603C6.49205 35.6266 6.43121 35.6388 6.36977 35.6388H6.36578C6.27316 35.6384 6.18272 35.6106 6.10589 35.5589C6.02906 35.5071 5.96929 35.4338 5.93411 35.3481C5.89893 35.2624 5.88992 35.1682 5.90823 35.0774C5.92654 34.9866 5.97133 34.9033 6.03697 34.8379C6.1026 34.7726 6.18613 34.7281 6.277 34.7102C6.36788 34.6923 6.46203 34.7017 6.54757 34.7372C6.6331 34.7727 6.7062 34.8328 6.75762 34.9099C6.80904 34.9869 6.83648 35.0775 6.83648 35.1701ZM9.62781 35.1701C9.62801 35.2629 9.6007 35.3537 9.54934 35.431C9.49797 35.5084 9.42485 35.5687 9.3392 35.6045C9.25355 35.6403 9.15922 35.6499 9.06811 35.6322C8.977 35.6144 8.8932 35.57 8.82728 35.5047C8.76137 35.4393 8.71629 35.3559 8.69775 35.2649C8.67921 35.174 8.68803 35.0796 8.7231 34.9936C8.75817 34.9077 8.81792 34.834 8.8948 34.782C8.97168 34.73 9.06225 34.7019 9.15508 34.7013H9.15906C9.28338 34.7013 9.40261 34.7507 9.49052 34.8386C9.57843 34.9265 9.62781 35.0458 9.62781 35.1701ZM8.23516 35.1701C8.23536 35.2629 8.20805 35.3537 8.15668 35.431C8.10532 35.5084 8.03219 35.5687 7.94655 35.6045C7.8609 35.6403 7.76656 35.6499 7.67545 35.6322C7.58434 35.6144 7.50054 35.57 7.43463 35.5047C7.36871 35.4393 7.32364 35.3559 7.30509 35.2649C7.28655 35.174 7.29537 35.0796 7.33044 34.9936C7.36551 34.9077 7.42526 34.834 7.50214 34.782C7.57903 34.73 7.6696 34.7019 7.76242 34.7013H7.76641C7.89073 34.7013 8.00995 34.7507 8.09786 34.8386C8.18577 34.9265 8.23516 35.0458 8.23516 35.1701ZM30.3722 35.1701C30.372 35.0773 30.3993 34.9864 30.4507 34.9091C30.502 34.8318 30.5752 34.7714 30.6608 34.7356C30.7465 34.6998 30.8408 34.6902 30.9319 34.708C31.023 34.7258 31.1068 34.7702 31.1727 34.8355C31.2387 34.9009 31.2837 34.9843 31.3023 35.0753C31.3208 35.1663 31.312 35.2607 31.2769 35.3466C31.2418 35.4326 31.182 35.5062 31.1051 35.5582C31.0283 35.6102 30.9377 35.6383 30.8448 35.6388H30.8409C30.7166 35.6388 30.5974 35.5894 30.5095 35.5015C30.4216 35.4136 30.3722 35.2944 30.3722 35.1701ZM31.7648 35.1701C31.7646 35.0773 31.792 34.9865 31.8433 34.9091C31.8947 34.8318 31.9678 34.7714 32.0535 34.7356C32.1391 34.6998 32.2334 34.6902 32.3245 34.708C32.4157 34.7258 32.4995 34.7701 32.5654 34.8355C32.6313 34.9009 32.6764 34.9843 32.6949 35.0752C32.7135 35.1662 32.7046 35.2606 32.6696 35.3466C32.6345 35.4325 32.5747 35.5061 32.4979 35.5582C32.421 35.6102 32.3304 35.6382 32.2376 35.6388H32.2336C32.1093 35.6388 31.99 35.5894 31.9021 35.5015C31.8142 35.4136 31.7648 35.2944 31.7648 35.1701ZM33.1575 35.1701C33.1573 35.0773 33.1846 34.9865 33.236 34.9091C33.2873 34.8318 33.3605 34.7714 33.4461 34.7356C33.5318 34.6998 33.6261 34.6902 33.7172 34.708C33.8083 34.7258 33.8921 34.7701 33.958 34.8355C34.0239 34.9009 34.069 34.9843 34.0876 35.0752C34.1061 35.1662 34.0973 35.2606 34.0622 35.3466C34.0271 35.4325 33.9674 35.5061 33.8905 35.5582C33.8136 35.6102 33.7231 35.6382 33.6302 35.6388H33.6262C33.5019 35.6388 33.3827 35.5894 33.2948 35.5015C33.2069 35.4136 33.1575 35.2944 33.1575 35.1701ZM35.9488 35.1701C35.9486 35.1086 35.9605 35.0477 35.9839 34.9909C36.0072 34.9341 36.0415 34.8824 36.0849 34.8388C36.1283 34.7953 36.1798 34.7607 36.2365 34.7371C36.2933 34.7135 36.3541 34.7014 36.4155 34.7013H36.4195C36.5122 34.7017 36.6026 34.7295 36.6794 34.7813C36.7562 34.833 36.816 34.9064 36.8512 34.9921C36.8864 35.0777 36.8954 35.1719 36.8771 35.2627C36.8588 35.3535 36.814 35.4369 36.7483 35.5022C36.6827 35.5676 36.5992 35.612 36.5083 35.63C36.4174 35.6479 36.3233 35.6385 36.2377 35.603C36.1522 35.5674 36.0791 35.5073 36.0277 35.4303C35.9763 35.3533 35.9488 35.2627 35.9488 35.1701ZM34.5561 35.1701C34.5559 35.1086 34.5678 35.0477 34.5911 34.9909C34.6145 34.934 34.6488 34.8824 34.6922 34.8388C34.7356 34.7953 34.7871 34.7607 34.8438 34.7371C34.9006 34.7135 34.9614 34.7014 35.0229 34.7013H35.0269C35.1195 34.7017 35.2099 34.7296 35.2867 34.7813C35.3636 34.8331 35.4233 34.9064 35.4585 34.9921C35.4937 35.0778 35.5027 35.172 35.4843 35.2628C35.466 35.3536 35.4212 35.4369 35.3556 35.5023C35.2899 35.5676 35.2064 35.612 35.1155 35.63C35.0247 35.6479 34.9305 35.6385 34.845 35.603C34.7595 35.5674 34.6864 35.5073 34.635 35.4303C34.5835 35.3533 34.5561 35.2627 34.5561 35.1701ZM18.3577 21.2884C18.4201 21.2884 18.4818 21.2759 18.5392 21.2518C18.5967 21.2276 18.6488 21.1923 18.6924 21.1477L26.6699 13.0127C26.713 12.9688 26.7471 12.9168 26.7701 12.8597C26.7931 12.8026 26.8046 12.7415 26.804 12.6799C26.8034 12.6184 26.7907 12.5575 26.7666 12.5009C26.7424 12.4442 26.7074 12.3929 26.6634 12.3498L25.3183 11.0306C25.2743 10.9875 25.2223 10.9535 25.1652 10.9305C25.1081 10.9075 25.047 10.896 24.9855 10.8966C24.9239 10.8972 24.8631 10.9099 24.8065 10.934C24.7498 10.9581 24.6985 10.9932 24.6554 11.0371L18.3577 17.459L15.3445 14.3863C15.2575 14.2976 15.1388 14.2471 15.0145 14.2458C14.8902 14.2446 14.7705 14.2928 14.6817 14.3799L13.3366 15.6992C13.2926 15.7423 13.2576 15.7937 13.2334 15.8503C13.2093 15.907 13.1966 15.9678 13.196 16.0294C13.1954 16.0909 13.2069 16.152 13.2299 16.2091C13.2529 16.2662 13.287 16.3182 13.3301 16.3622L18.023 21.1478C18.0667 21.1923 18.1188 21.2277 18.1762 21.2518C18.2337 21.2759 18.2954 21.2884 18.3577 21.2884ZM15.0034 15.3777L18.0234 18.457C18.0671 18.5015 18.1192 18.5369 18.1766 18.561C18.2341 18.5852 18.2958 18.5976 18.3581 18.5976C18.4205 18.5976 18.4822 18.5852 18.5396 18.561C18.5971 18.5369 18.6492 18.5015 18.6928 18.457L24.997 12.0283L25.6727 12.6909L18.3581 20.1502L14.328 16.0404L15.0034 15.3777Z" fill="white"/>
</svg>
