<svg width="420" height="240" viewBox="0 0 420 240" fill="none" xmlns="http://www.w3.org/2000/svg">
<path fill-rule="evenodd" clip-rule="evenodd" d="M420 64.2555C420 55.7948 408.461 50 400 50C383.431 50 370 36.5685 370 20C370 11.5394 364.205 0 355.745 0H20C8.95431 0 0 8.9543 0 20V220C0 231.046 8.9543 240 20 240H400C411.046 240 420 231.046 420 220V64.2555Z" fill="#F5F4FF"/>
<circle cx="400" cy="20" r="20" fill="#2BC8EB"/>
<path d="M399.95 20.432C399.95 22.2987 399.593 23.7333 398.878 24.736C398.174 25.728 397.198 26.224 395.95 26.224C394.702 26.224 393.721 25.728 393.006 24.736C392.302 23.7333 391.95 22.2987 391.95 20.432C391.95 19.504 392.041 18.6827 392.222 17.968C392.414 17.2533 392.686 16.6507 393.038 16.16C393.39 15.6693 393.812 15.296 394.302 15.04C394.793 14.784 395.342 14.656 395.95 14.656C397.198 14.656 398.174 15.1573 398.878 16.16C399.593 17.152 399.95 18.576 399.95 20.432ZM397.518 20.432C397.518 19.8773 397.492 19.376 397.438 18.928C397.385 18.4693 397.3 18.0747 397.182 17.744C397.065 17.4133 396.905 17.1573 396.702 16.976C396.5 16.7947 396.249 16.704 395.95 16.704C395.652 16.704 395.401 16.7947 395.198 16.976C395.006 17.1573 394.846 17.4133 394.718 17.744C394.601 18.0747 394.516 18.4693 394.462 18.928C394.409 19.376 394.382 19.8773 394.382 20.432C394.382 20.9867 394.409 21.4933 394.462 21.952C394.516 22.4107 394.601 22.8053 394.718 23.136C394.846 23.4667 395.006 23.7227 395.198 23.904C395.401 24.0853 395.652 24.176 395.95 24.176C396.249 24.176 396.5 24.0853 396.702 23.904C396.905 23.7227 397.065 23.4667 397.182 23.136C397.3 22.8053 397.385 22.4107 397.438 21.952C397.492 21.4933 397.518 20.9867 397.518 20.432ZM408.436 17.824C408.436 18.2293 408.356 18.6187 408.196 18.992C408.036 19.3653 407.828 19.728 407.572 20.08C407.316 20.4213 407.028 20.752 406.708 21.072C406.388 21.392 406.073 21.696 405.764 21.984C405.604 22.1333 405.428 22.304 405.236 22.496C405.055 22.6773 404.879 22.864 404.708 23.056C404.537 23.248 404.383 23.4293 404.244 23.6C404.116 23.76 404.036 23.8933 404.004 24H408.772V26H401.38C401.359 25.8827 401.348 25.7333 401.348 25.552C401.348 25.3707 401.348 25.2427 401.348 25.168C401.348 24.656 401.428 24.1867 401.588 23.76C401.759 23.3333 401.977 22.9387 402.244 22.576C402.511 22.2027 402.809 21.856 403.14 21.536C403.481 21.216 403.817 20.896 404.148 20.576C404.404 20.3307 404.644 20.1013 404.868 19.888C405.092 19.664 405.289 19.4507 405.46 19.248C405.631 19.0347 405.764 18.8267 405.86 18.624C405.956 18.4107 406.004 18.1973 406.004 17.984C406.004 17.5147 405.871 17.184 405.604 16.992C405.337 16.8 405.007 16.704 404.612 16.704C404.324 16.704 404.052 16.752 403.796 16.848C403.551 16.9333 403.321 17.04 403.108 17.168C402.905 17.2853 402.729 17.408 402.58 17.536C402.431 17.6533 402.319 17.7493 402.244 17.824L401.06 16.16C401.529 15.7227 402.073 15.3653 402.692 15.088C403.321 14.8 403.993 14.656 404.708 14.656C405.359 14.656 405.919 14.7307 406.388 14.88C406.857 15.0293 407.241 15.2427 407.54 15.52C407.849 15.7867 408.073 16.1173 408.212 16.512C408.361 16.896 408.436 17.3333 408.436 17.824Z" fill="#222627"/>
</svg>
