<svg width="420" height="240" viewBox="0 0 420 240" fill="none" xmlns="http://www.w3.org/2000/svg">
<path fill-rule="evenodd" clip-rule="evenodd" d="M420 64.2555C420 55.7948 408.461 50 400 50C383.431 50 370 36.5685 370 20C370 11.5394 364.205 0 355.745 0H20C8.95431 0 0 8.9543 0 20V220C0 231.046 8.9543 240 20 240H400C411.046 240 420 231.046 420 220V64.2555Z" fill="#F5F4FF"/>
<circle cx="400" cy="20" r="20" fill="#2BC8EB"/>
<path d="M399.95 20.432C399.95 22.2987 399.593 23.7333 398.878 24.736C398.174 25.728 397.198 26.224 395.95 26.224C394.702 26.224 393.721 25.728 393.006 24.736C392.302 23.7333 391.95 22.2987 391.95 20.432C391.95 19.504 392.041 18.6827 392.222 17.968C392.414 17.2533 392.686 16.6507 393.038 16.16C393.39 15.6693 393.812 15.296 394.302 15.04C394.793 14.784 395.342 14.656 395.95 14.656C397.198 14.656 398.174 15.1573 398.878 16.16C399.593 17.152 399.95 18.576 399.95 20.432ZM397.518 20.432C397.518 19.8773 397.492 19.376 397.438 18.928C397.385 18.4693 397.3 18.0747 397.182 17.744C397.065 17.4133 396.905 17.1573 396.702 16.976C396.5 16.7947 396.249 16.704 395.95 16.704C395.652 16.704 395.401 16.7947 395.198 16.976C395.006 17.1573 394.846 17.4133 394.718 17.744C394.601 18.0747 394.516 18.4693 394.462 18.928C394.409 19.376 394.382 19.8773 394.382 20.432C394.382 20.9867 394.409 21.4933 394.462 21.952C394.516 22.4107 394.601 22.8053 394.718 23.136C394.846 23.4667 395.006 23.7227 395.198 23.904C395.401 24.0853 395.652 24.176 395.95 24.176C396.249 24.176 396.5 24.0853 396.702 23.904C396.905 23.7227 397.065 23.4667 397.182 23.136C397.3 22.8053 397.385 22.4107 397.438 21.952C397.492 21.4933 397.518 20.9867 397.518 20.432ZM404.148 26.24C403.86 26.24 403.556 26.2187 403.236 26.176C402.916 26.144 402.607 26.096 402.308 26.032C402.009 25.968 401.737 25.8987 401.492 25.824C401.247 25.7493 401.055 25.68 400.916 25.616L401.38 23.632C401.657 23.7493 402.009 23.8773 402.436 24.016C402.873 24.144 403.412 24.208 404.052 24.208C404.788 24.208 405.327 24.0693 405.668 23.792C406.009 23.5147 406.18 23.1413 406.18 22.672C406.18 22.384 406.116 22.144 405.988 21.952C405.871 21.7493 405.705 21.5893 405.492 21.472C405.279 21.344 405.023 21.2587 404.724 21.216C404.436 21.1627 404.127 21.136 403.796 21.136H402.868V19.216H403.924C404.159 19.216 404.383 19.1947 404.596 19.152C404.82 19.1093 405.017 19.04 405.188 18.944C405.359 18.8373 405.492 18.6987 405.588 18.528C405.695 18.3467 405.748 18.1227 405.748 17.856C405.748 17.6533 405.705 17.4773 405.62 17.328C405.535 17.1787 405.423 17.056 405.284 16.96C405.156 16.864 405.001 16.7947 404.82 16.752C404.649 16.6987 404.473 16.672 404.292 16.672C403.833 16.672 403.407 16.7413 403.012 16.88C402.628 17.0187 402.276 17.1893 401.956 17.392L401.108 15.648C401.279 15.5413 401.476 15.4293 401.7 15.312C401.935 15.1947 402.191 15.088 402.468 14.992C402.745 14.896 403.039 14.816 403.348 14.752C403.668 14.688 404.004 14.656 404.356 14.656C405.007 14.656 405.567 14.736 406.036 14.896C406.516 15.0453 406.911 15.264 407.22 15.552C407.529 15.8293 407.759 16.16 407.908 16.544C408.057 16.9173 408.132 17.328 408.132 17.776C408.132 18.2133 408.009 18.64 407.764 19.056C407.519 19.4613 407.188 19.7707 406.772 19.984C407.348 20.2187 407.791 20.5707 408.1 21.04C408.42 21.4987 408.58 22.0533 408.58 22.704C408.58 23.216 408.495 23.6907 408.324 24.128C408.153 24.5547 407.887 24.928 407.524 25.248C407.161 25.5573 406.697 25.8027 406.132 25.984C405.577 26.1547 404.916 26.24 404.148 26.24Z" fill="#222627"/>
</svg>
