<svg width="60" height="60" viewBox="0 0 60 60" fill="none" xmlns="http://www.w3.org/2000/svg">
<g clip-path="url(#clip0_1_13040)">
<path d="M35.243 33.13C34.9055 33.2475 34.6564 33.5362 34.5895 33.8872C34.5226 34.2382 34.648 34.5982 34.9185 34.8317C35.189 35.0651 35.5635 35.1365 35.901 35.019C44.2065 32.1405 49.2196 23.6854 47.76 15.0172C46.3005 6.34898 38.7952 0.00170898 30.005 0.00170898C21.2147 0.00170898 13.7094 6.34898 12.2499 15.0172C10.7904 23.6854 15.8034 32.1405 24.109 35.019C24.6309 35.2004 25.201 34.9244 25.3825 34.4025C25.5639 33.8806 25.2879 33.3104 24.766 33.129C23.037 32.5256 21.4248 31.6292 20 30.479V29.39C19.9959 26.2705 21.9167 23.4719 24.829 22.354C27.927 24.5488 32.073 24.5488 35.171 22.354C38.0833 23.4719 40.004 26.2705 40 29.39V30.483C38.5776 31.6312 36.9685 32.5266 35.243 33.13ZM23 15C23 11.134 26.134 7.99998 30 7.99998C33.866 7.99998 37 11.134 37 15C37 18.866 33.866 22 30 22C26.1358 21.9956 23.0044 18.8641 23 15ZM36.8 20.873C39.944 17.2418 39.6825 11.7816 36.2058 8.46743C32.7292 5.1533 27.2627 5.1533 23.7861 8.46743C20.3094 11.7816 20.0479 17.2418 23.192 20.873C20.2474 22.3785 18.2942 25.3033 18.032 28.6C12.3314 22.1753 12.7205 12.3959 18.9134 6.4444C25.1064 0.492927 34.8936 0.492927 41.0865 6.4444C47.2795 12.3959 47.6685 22.1753 41.968 28.6C41.7048 25.3013 39.7481 22.3758 36.8 20.873Z" fill="white"/>
<path d="M21.4 59.6109C22.0115 60.0622 22.8269 60.1247 23.5 59.7719L30.007 56.3909L36.513 59.7729C37.1877 60.1237 38.003 60.0615 38.6167 59.6124C39.2303 59.1634 39.5363 58.4051 39.406 57.6559L38.17 50.5239L43.4 45.4829C43.9495 44.9532 44.1496 44.157 43.9158 43.4305C43.6821 42.704 43.0553 42.1739 42.3 42.0639L35.04 41.0209L31.8 34.5079C31.4636 33.8259 30.7675 33.3957 30.007 33.3999C29.2488 33.3972 28.555 33.8257 28.218 34.5049L24.96 41.0209L17.716 42.0629C16.9604 42.1726 16.3331 42.7029 16.0993 43.4298C15.8655 44.1567 16.066 44.9533 16.616 45.4829L21.848 50.5239L20.611 57.6559C20.4789 58.4048 20.7851 59.1635 21.4 59.6109ZM18 44.0429L25.762 42.9259C26.0864 42.8794 26.3673 42.6769 26.514 42.3839L30.006 35.3999L33.483 42.3819C33.6295 42.6759 33.9109 42.8793 34.236 42.9259L42.014 44.0429L36.4 49.4519C36.1612 49.6823 36.0522 50.016 36.109 50.3429L37.436 57.9999L30.469 54.3789C30.18 54.2288 29.836 54.2288 29.547 54.3789L22.579 57.9999L23.906 50.3449C23.9629 50.018 23.8538 49.6843 23.615 49.4539L18 44.0429Z" fill="white"/>
<path d="M4.70007 44.2221L3.72307 49.8711C3.62877 50.3977 3.77231 50.9391 4.11516 51.3499C4.45801 51.7607 4.96502 51.9987 5.50007 52.0001C5.79219 51.9996 6.07993 51.9289 6.33907 51.7941L11.5001 49.1081L16.6581 51.8001C16.975 51.9651 17.3558 51.9486 17.6572 51.7567C17.9586 51.5648 18.1347 51.2266 18.1192 50.8697C18.1037 50.5127 17.899 50.1911 17.5821 50.0261L11.9621 47.0961C11.6725 46.9453 11.3276 46.9453 11.0381 47.0961L5.76107 49.8451L6.76107 44.0451C6.81788 43.7182 6.70887 43.3844 6.47007 43.1541L2.22307 39.0541L8.10007 38.2101C8.42459 38.1633 8.70558 37.9604 8.85207 37.6671L11.5001 32.3731L14.1381 37.6661C14.2847 37.9603 14.5666 38.1637 14.8921 38.2101L21.1711 39.1101C21.7178 39.1882 22.2244 38.8083 22.3026 38.2616C22.3807 37.7148 22.0008 37.2082 21.4541 37.1301L15.6941 36.3051L13.1171 31.1331C12.8118 30.5178 12.1829 30.1298 11.4961 30.1331H11.4901C10.8107 30.1317 10.1898 30.5174 9.89007 31.1271L7.30007 36.3051L1.55707 37.1291C0.869529 37.2207 0.29583 37.6993 0.0823255 38.3592C-0.131179 39.0192 0.0535029 39.7431 0.557065 40.2201L4.70007 44.2221Z" fill="white"/>
<path d="M59.91 38.356C59.7012 37.6994 59.1327 37.222 58.45 37.13L52.7 36.305L50.116 31.128C49.8171 30.5166 49.1964 30.1287 48.516 30.128H48.51C47.8227 30.1243 47.1934 30.5123 46.888 31.128L44.312 36.299L38.551 37.124C38.1973 37.1745 37.8974 37.4099 37.7643 37.7415C37.6313 38.0731 37.6852 38.4505 37.9058 38.7315C38.1265 39.0125 38.4803 39.1545 38.834 39.104L45.114 38.204C45.4394 38.1576 45.7213 37.9542 45.868 37.66L48.5 32.373L51.143 37.667C51.2894 37.9603 51.5704 38.1632 51.895 38.21L57.769 39.053L53.522 43.153C53.2832 43.3833 53.1741 43.7171 53.231 44.044L54.236 49.844L48.959 47.092C48.6694 46.9411 48.3245 46.9411 48.035 47.092L42.415 50.022C42.0981 50.187 41.8933 50.5086 41.8778 50.8656C41.8623 51.2225 42.0384 51.5607 42.3398 51.7526C42.6412 51.9445 43.0221 51.961 43.339 51.796L48.5 49.108L53.66 51.8C54.2707 52.1173 55.0087 52.0603 55.5635 51.653C56.1183 51.2457 56.3937 50.5587 56.274 49.881L55.3 44.222L59.446 40.222C59.9477 39.7416 60.1283 39.0154 59.91 38.356Z" fill="white"/>
<path d="M24.5001 47.139C24.5483 47.1387 24.5965 47.1351 24.6441 47.128L28.4051 46.587C28.7295 46.5404 29.0104 46.3379 29.1571 46.045L30.8971 42.566C31.1457 42.0717 30.9464 41.4695 30.4521 41.221C29.9578 40.9725 29.3557 41.1717 29.1071 41.666L27.6071 44.677L24.3621 45.144C23.8424 45.2181 23.4684 45.6815 23.5057 46.2052C23.5431 46.7289 23.9791 47.1345 24.5041 47.134L24.5001 47.139Z" fill="white"/>
</g>
<defs>
<clipPath id="clip0_1_13040">
<rect width="60" height="60" fill="white"/>
</clipPath>
</defs>
</svg>
