<svg width="420" height="240" viewBox="0 0 420 240" fill="none" xmlns="http://www.w3.org/2000/svg">
<path fill-rule="evenodd" clip-rule="evenodd" d="M420 64.2555C420 55.7948 408.461 50 400 50C383.431 50 370 36.5685 370 20C370 11.5394 364.205 0 355.745 0H20C8.95431 0 0 8.9543 0 20V220C0 231.046 8.9543 240 20 240H400C411.046 240 420 231.046 420 220V64.2555Z" fill="#F5F4FF"/>
<circle cx="400" cy="20" r="20" fill="#2BC8EB"/>
<path d="M399.95 20.432C399.95 22.2987 399.593 23.7333 398.878 24.736C398.174 25.728 397.198 26.224 395.95 26.224C394.702 26.224 393.721 25.728 393.006 24.736C392.302 23.7333 391.95 22.2987 391.95 20.432C391.95 19.504 392.041 18.6827 392.222 17.968C392.414 17.2533 392.686 16.6507 393.038 16.16C393.39 15.6693 393.812 15.296 394.302 15.04C394.793 14.784 395.342 14.656 395.95 14.656C397.198 14.656 398.174 15.1573 398.878 16.16C399.593 17.152 399.95 18.576 399.95 20.432ZM397.518 20.432C397.518 19.8773 397.492 19.376 397.438 18.928C397.385 18.4693 397.3 18.0747 397.182 17.744C397.065 17.4133 396.905 17.1573 396.702 16.976C396.5 16.7947 396.249 16.704 395.95 16.704C395.652 16.704 395.401 16.7947 395.198 16.976C395.006 17.1573 394.846 17.4133 394.718 17.744C394.601 18.0747 394.516 18.4693 394.462 18.928C394.409 19.376 394.382 19.8773 394.382 20.432C394.382 20.9867 394.409 21.4933 394.462 21.952C394.516 22.4107 394.601 22.8053 394.718 23.136C394.846 23.4667 395.006 23.7227 395.198 23.904C395.401 24.0853 395.652 24.176 395.95 24.176C396.249 24.176 396.5 24.0853 396.702 23.904C396.905 23.7227 397.065 23.4667 397.182 23.136C397.3 22.8053 397.385 22.4107 397.438 21.952C397.492 21.4933 397.518 20.9867 397.518 20.432ZM401.62 17.216C401.929 17.088 402.249 16.944 402.58 16.784C402.921 16.6133 403.252 16.432 403.572 16.24C403.892 16.0373 404.196 15.8293 404.484 15.616C404.783 15.392 405.049 15.1573 405.284 14.912H406.948V26H404.564V18.016C404.244 18.2293 403.887 18.4267 403.492 18.608C403.097 18.7787 402.713 18.928 402.34 19.056L401.62 17.216Z" fill="#222627"/>
</svg>
