<svg width="23" height="19" viewBox="0 0 23 19" fill="none" xmlns="http://www.w3.org/2000/svg">
<path d="M11.5 0.75C14.625 0.75 17.1641 2.19531 19 3.91406C20.8359 5.59375 22.0469 7.625 22.6328 9.03125C22.75 9.34375 22.75 9.69531 22.6328 10.0078C22.0469 11.375 20.8359 13.4062 19 15.125C17.1641 16.8438 14.625 18.25 11.5 18.25C8.33594 18.25 5.79688 16.8438 3.96094 15.125C2.125 13.4062 0.914062 11.375 0.328125 10.0078C0.210938 9.69531 0.210938 9.34375 0.328125 9.03125C0.914062 7.625 2.125 5.59375 3.96094 3.91406C5.79688 2.19531 8.33594 0.75 11.5 0.75ZM5.875 9.5C5.875 11.5312 6.92969 13.3672 8.6875 14.3828C10.4062 15.3984 12.5547 15.3984 14.3125 14.3828C16.0312 13.3672 17.125 11.5312 17.125 9.5C17.125 7.50781 16.0312 5.67188 14.3125 4.65625C12.5547 3.64062 10.4062 3.64062 8.6875 4.65625C6.92969 5.67188 5.875 7.50781 5.875 9.5ZM11.5 7C11.5 6.72656 11.4219 6.49219 11.3438 6.21875C11.2656 6.02344 11.4219 5.75 11.6562 5.75C13.2188 5.82812 14.6641 6.92188 15.0938 8.5625C15.6406 10.5547 14.4688 12.5859 12.4375 13.1328C10.4453 13.6797 8.375 12.4688 7.86719 10.4766C7.78906 10.2031 7.75 9.92969 7.75 9.69531C7.71094 9.46094 7.98438 9.30469 8.17969 9.38281C8.45312 9.46094 8.6875 9.5 9 9.5C10.3672 9.5 11.5 8.40625 11.5 7Z" fill="#222627"/>
</svg>
