<svg width="22" height="16" viewBox="0 0 22 16" fill="none" xmlns="http://www.w3.org/2000/svg">
<path d="M7.5 11C6.28125 11 5.1875 10.75 4.21875 10.2812C3.96875 10.4062 3.71875 10.5 3.4375 10.625C2.84375 10.8438 2.15625 11 1.5 11C1.28125 11 1.09375 10.875 1 10.6562C0.9375 10.4688 1.03125 10.25 1.1875 10.125V10.0938H1.21875C1.25 10.0625 1.3125 10 1.375 9.96875C1.46875 9.875 1.625 9.71875 1.78125 9.53125C1.9375 9.3125 2.125 9.03125 2.21875 8.75C1.4375 7.84375 1 6.71875 1 5.5C1 2.46875 3.90625 0 7.5 0C11.0625 0 14 2.46875 14 5.5C14 8.5625 11.0625 11 7.5 11ZM15 5.5H14.9688C14.9688 5.34375 14.9688 5.1875 14.9688 5.03125C18.3438 5.21875 20.9688 7.625 20.9688 10.5C20.9688 11.7188 20.5312 12.8438 19.75 13.75C19.8438 14.0312 20.0312 14.2812 20.1875 14.5C20.3438 14.7188 20.5 14.8438 20.5938 14.9688C20.6562 15 20.7188 15.0625 20.75 15.0625C20.75 15.0938 20.7812 15.0938 20.7812 15.0938C20.9688 15.25 21.0312 15.4688 20.9688 15.6562C20.9062 15.875 20.6875 16 20.5 16C19.8125 16 19.125 15.8438 18.5312 15.625C18.25 15.5 18 15.4062 17.75 15.2812C16.7812 15.75 15.6875 16 14.5 16C11.5 16 8.96875 14.3125 8.21875 11.9688C11.875 11.6562 15 9.03125 15 5.5Z" fill="#222627"/>
</svg>
