<svg width="18" height="12" viewBox="0 0 18 12" fill="none" xmlns="http://www.w3.org/2000/svg">
<path d="M7.25 5.4375C8.59375 5.8125 9.25 6.84375 9.25 8.21875C9.25 10.4688 7.375 11.4375 5.34375 11.4375H0V0.375H5.21875C7.09375 0.375 8.75 0.90625 8.75 3.125C8.75 4.21875 8.21875 4.9375 7.25 5.4375ZM2.40625 2.25V4.84375H4.875C5.75 4.84375 6.375 4.46875 6.375 3.53125C6.375 2.5 5.59375 2.25 4.71875 2.25H2.40625ZM5.03125 9.5625C6 9.5625 6.8125 9.21875 6.8125 8.09375C6.8125 6.96875 6.15625 6.5 5.0625 6.5H2.40625V9.5625H5.03125ZM16.2188 2.03125V0.9375H11.75V2.03125H16.2188ZM18 7.5625C18 7.6875 17.9688 7.84375 17.9688 7.96875H12.1875C12.1875 9.25 12.875 10 14.1562 10C14.8125 10 15.6875 9.65625 15.9062 8.96875H17.8438C17.25 10.7812 16 11.6562 14.0938 11.6562C11.5625 11.6562 9.96875 9.9375 9.96875 7.4375C9.96875 5.03125 11.625 3.1875 14.0938 3.1875C16.5938 3.1875 18 5.1875 18 7.5625ZM12.1875 6.5625H15.7812C15.6875 5.5 15.125 4.875 14 4.875C12.9688 4.875 12.25 5.53125 12.1875 6.5625Z" fill="#222627"/>
</svg>
