<svg width="80" height="80" viewBox="0 0 80 80" fill="none" xmlns="http://www.w3.org/2000/svg">
<circle cx="40" cy="40" r="40" fill="#2BC8EB"/>
<g clip-path="url(#clip0_1_11502)">
<path d="M56.4371 26.9071C50.9336 25.3992 45.3977 23.0511 40.428 20.1169C40.164 19.961 39.8364 19.961 39.5725 20.1169C34.4594 23.1354 29.2227 25.3564 23.5629 26.9071C23.1973 27.0072 22.9438 27.3395 22.9438 27.7187V36.316C22.9438 45.1693 27.0281 51.0296 30.4545 54.3867C34.1433 58.0012 38.4401 60 40.0002 60C41.5601 60 45.857 58.0012 49.5457 54.3867C52.9721 51.0297 57.0561 45.1694 57.0561 36.316V27.7186C57.0561 27.3395 56.8027 27.0072 56.4371 26.9071ZM55.3733 36.3159C55.3733 44.5849 51.5639 50.0532 48.3679 53.1846C44.7405 56.7389 40.8622 58.3171 40.0002 58.3171C39.1383 58.3171 35.2597 56.7389 31.6322 53.1846C28.4363 50.0532 24.6267 44.5849 24.6267 36.3159V28.3573C30.0391 26.8206 35.0795 24.676 40.0004 21.8164C44.7983 24.6002 50.0903 26.8514 55.3733 28.357V36.3159Z" fill="white"/>
<path d="M32.5419 28.2632C32.3716 27.8308 31.883 27.6184 31.4505 27.7888C29.9474 28.3811 28.4046 28.9262 26.865 29.4092C26.5141 29.5193 26.2754 29.8443 26.2754 30.212V33.4613C26.2754 33.926 26.6522 34.3027 27.1168 34.3027C27.5814 34.3027 27.9582 33.926 27.9582 33.4613V30.8269C29.3394 30.38 30.7191 29.8857 32.0674 29.3544C32.4998 29.1842 32.7123 28.6957 32.5419 28.2632Z" fill="white"/>
<path d="M34.1402 28.4228C34.2531 28.4228 34.3677 28.4001 34.4776 28.3521L34.4931 28.3454C34.9188 28.1588 35.1105 27.6633 34.924 27.2377C34.7372 26.812 34.2389 26.6194 33.8136 26.8058L33.8 26.8117C33.3741 26.9977 33.1818 27.4929 33.3678 27.9187C33.5058 28.2347 33.8156 28.4228 34.1402 28.4228Z" fill="white"/>
<path d="M50.0252 47.1315C49.6364 46.8773 49.115 46.9866 48.8605 47.3756C48.1671 48.4369 47.3537 49.4531 46.4425 50.3959C45.6931 51.171 44.8811 51.8935 44.0289 52.5431C43.6595 52.8248 43.5884 53.3528 43.87 53.7224C44.0357 53.9395 44.2863 54.0537 44.5397 54.0537C44.7177 54.0537 44.897 53.9976 45.0493 53.8813C45.9685 53.1805 46.8443 52.4013 47.6522 51.5655C48.6375 50.5465 49.5179 49.4465 50.2693 48.2961C50.5236 47.907 50.4142 47.3856 50.0252 47.1315Z" fill="white"/>
<path d="M42.0748 53.8627L42.0265 53.8911C41.6244 54.124 41.487 54.6387 41.7198 55.0408C41.8758 55.3104 42.1582 55.4608 42.4487 55.4608C42.5917 55.4608 42.7369 55.4243 42.8695 55.3474L42.9252 55.3147C43.3262 55.0798 43.4609 54.5644 43.226 54.1634C42.991 53.7625 42.4755 53.6281 42.0748 53.8627Z" fill="white"/>
<path d="M34.2646 38.2827C33.7479 37.766 33.0608 37.4816 32.33 37.4816C31.5993 37.4816 30.9121 37.766 30.3952 38.2827C29.3286 39.3496 29.3286 41.0855 30.3952 42.1523L35.3636 47.1206C35.8803 47.6371 36.5674 47.9216 37.2983 47.9216C38.0292 47.9216 38.7163 47.6371 39.2331 47.1204L49.605 36.7484C50.6716 35.6813 50.6716 33.9456 49.6048 32.8791C49.0881 32.3624 48.401 32.078 47.6701 32.078C46.9392 32.078 46.2521 32.3625 45.7353 32.8791L37.2982 41.3162L34.2646 38.2827ZM46.9253 34.0691C47.1241 33.8703 47.3888 33.7608 47.6702 33.7608C47.9517 33.7608 48.2161 33.8703 48.4151 34.0691C48.8256 34.4796 48.8256 35.1479 48.4149 35.5586L38.0431 45.9305C37.8443 46.1293 37.5797 46.2388 37.2983 46.2388C37.0169 46.2388 36.7523 46.1293 36.5534 45.9305L31.5851 40.9624C31.1744 40.5517 31.1744 39.8834 31.585 39.4728C31.7839 39.274 32.0485 39.1644 32.33 39.1644C32.6114 39.1644 32.8759 39.2738 33.0747 39.4727L36.7032 43.1013C36.8611 43.259 37.075 43.3477 37.2982 43.3477C37.5214 43.3477 37.7353 43.2591 37.8931 43.1013L46.9253 34.0691Z" fill="white"/>
</g>
<defs>
<clipPath id="clip0_1_11502">
<rect width="40" height="40" fill="white" transform="translate(20 20)"/>
</clipPath>
</defs>
</svg>
