<svg width="17" height="17" viewBox="0 0 17 17" fill="none" xmlns="http://www.w3.org/2000/svg">
<path d="M8.75 1C12.75 1 16 4.25 16 8.25C16 8.6875 15.6562 9 15.25 9C14.8125 9 14.5 8.6875 14.5 8.25C14.5 5.09375 11.9062 2.5 8.75 2.5C8.3125 2.5 8 2.1875 8 1.75C8 1.34375 8.3125 1 8.75 1ZM9 7C9.53125 7 10 7.46875 10 8C10 8.5625 9.53125 9 9 9C8.4375 9 8 8.5625 8 8C8 7.46875 8.4375 7 9 7ZM8 4.75C8 4.34375 8.3125 4 8.75 4C11.0938 4 13 5.90625 13 8.25C13 8.6875 12.6562 9 12.25 9C11.8125 9 11.5 8.6875 11.5 8.25C11.5 6.75 10.25 5.5 8.75 5.5C8.3125 5.5 8 5.1875 8 4.75ZM3.65625 1.0625C4.25 0.90625 4.90625 1.1875 5.125 1.78125L6.375 4.78125C6.59375 5.28125 6.46875 5.875 6.03125 6.21875L4.5 7.5C5.53125 9.6875 7.3125 11.4688 9.5 12.5L10.7812 10.9688C11.125 10.5312 11.7188 10.4062 12.2188 10.625L15.2188 11.875C15.7812 12.0938 16.0938 12.75 15.9375 13.3438L15.1875 16.0938C15.0312 16.625 14.5625 17 14 17C6.25 17 0 10.75 0 3C0 2.4375 0.375 1.96875 0.90625 1.8125L3.65625 1.0625Z" fill="white"/>
</svg>
